<svg width="198" height="161" viewBox="0 0 198 161" fill="none" xmlns="http://www.w3.org/2000/svg">
<path d="M130.355 19.6162C134.406 19.0004 138.729 19.7417 143.438 22.1611C149.257 25.151 152.657 29.1563 154.242 34.0166C155.833 38.897 155.613 44.6991 154.068 51.3018C150.974 64.5219 142.629 80.7264 133.379 98.7285C127.941 109.314 122.676 119.155 117.394 127.506C112.109 135.861 106.824 142.695 101.353 147.287C97.5367 150.491 93.649 152.588 89.6255 153.364C85.6098 154.139 81.4194 153.605 76.9761 151.485C71.5842 148.913 68.3898 145.123 66.8804 140.338C65.3637 135.53 65.535 129.672 66.979 122.963C69.8688 109.537 77.8057 92.914 87.0483 74.9248C92.554 64.2089 97.732 54.1149 102.917 45.5371C108.106 36.9546 113.277 29.9307 118.754 25.333C122.466 22.2175 126.299 20.2329 130.355 19.6162Z" fill="white" stroke="#EBC635"/>
<mask id="path-2-outside-1_387_71" maskUnits="userSpaceOnUse" x="64.3169" y="15.8496" width="72" height="140" fill="black">
<rect fill="white" x="64.3169" y="15.8496" width="72" height="140"/>
<path d="M101.674 147.67C99.0236 149.895 96.324 151.605 93.5552 152.716C92.67 153.071 91.7775 153.365 90.8774 153.595C90.365 153.726 89.8502 153.837 89.3325 153.926C88.9441 153.993 88.5541 154.047 88.1626 154.09C87.641 154.147 87.1166 154.182 86.5894 154.195C86.3258 154.202 86.0614 154.203 85.7964 154.198C85.3986 154.191 84.9992 154.172 84.5981 154.14C84.0634 154.097 83.5257 154.031 82.9849 153.942C81.9031 153.765 80.8086 153.495 79.7007 153.127C79.4239 153.035 79.1462 152.937 78.8677 152.833C78.3103 152.625 77.7495 152.392 77.1851 152.135C77.044 152.07 76.9028 152.004 76.7612 151.937L90.5503 140.366C90.6918 140.434 90.833 140.5 90.9741 140.564C91.2559 140.693 91.5369 140.815 91.8169 140.932C92.0973 141.048 92.3771 141.158 92.6558 141.262C92.9343 141.366 93.2119 141.464 93.4888 141.556C93.7654 141.647 94.041 141.734 94.3159 141.813C95.279 142.093 96.232 142.298 97.1753 142.434C97.4446 142.472 97.7132 142.505 97.981 142.532C98.115 142.546 98.2487 142.559 98.3823 142.569C98.6497 142.591 98.9163 142.606 99.1821 142.616C99.5806 142.631 99.9774 142.635 100.373 142.625C100.768 142.615 101.161 142.593 101.553 142.559C101.684 142.547 101.814 142.534 101.945 142.52C102.336 142.477 102.726 142.423 103.114 142.356C103.372 142.312 103.63 142.262 103.887 142.207C105.56 141.85 107.206 141.272 108.829 140.489C109.078 140.369 109.327 140.244 109.576 140.114C110.57 139.594 111.556 138.998 112.535 138.329C112.779 138.162 113.023 137.991 113.267 137.814C113.998 137.286 114.725 136.718 115.449 136.111L101.674 147.67ZM100.392 63.126C81.9168 99.0849 68.5122 129.851 90.5493 140.366L76.7612 151.937C54.7234 141.422 68.1277 110.655 86.603 74.6963L100.392 63.126ZM134.883 16.8496C123.383 34.3496 111.399 41.7032 100.392 63.126L86.603 74.6953C97.6098 53.2726 108.8 33.1531 119.883 23.8496L134.883 16.8496Z"/>
</mask>
<path d="M101.674 147.67C99.0236 149.895 96.324 151.605 93.5552 152.716C92.67 153.071 91.7775 153.365 90.8774 153.595C90.365 153.726 89.8502 153.837 89.3325 153.926C88.9441 153.993 88.5541 154.047 88.1626 154.09C87.641 154.147 87.1166 154.182 86.5894 154.195C86.3258 154.202 86.0614 154.203 85.7964 154.198C85.3986 154.191 84.9992 154.172 84.5981 154.14C84.0634 154.097 83.5257 154.031 82.9849 153.942C81.9031 153.765 80.8086 153.495 79.7007 153.127C79.4239 153.035 79.1462 152.937 78.8677 152.833C78.3103 152.625 77.7495 152.392 77.1851 152.135C77.044 152.07 76.9028 152.004 76.7612 151.937L90.5503 140.366C90.6918 140.434 90.833 140.5 90.9741 140.564C91.2559 140.693 91.5369 140.815 91.8169 140.932C92.0973 141.048 92.3771 141.158 92.6558 141.262C92.9343 141.366 93.2119 141.464 93.4888 141.556C93.7654 141.647 94.041 141.734 94.3159 141.813C95.279 142.093 96.232 142.298 97.1753 142.434C97.4446 142.472 97.7132 142.505 97.981 142.532C98.115 142.546 98.2487 142.559 98.3823 142.569C98.6497 142.591 98.9163 142.606 99.1821 142.616C99.5806 142.631 99.9774 142.635 100.373 142.625C100.768 142.615 101.161 142.593 101.553 142.559C101.684 142.547 101.814 142.534 101.945 142.52C102.336 142.477 102.726 142.423 103.114 142.356C103.372 142.312 103.63 142.262 103.887 142.207C105.56 141.85 107.206 141.272 108.829 140.489C109.078 140.369 109.327 140.244 109.576 140.114C110.57 139.594 111.556 138.998 112.535 138.329C112.779 138.162 113.023 137.991 113.267 137.814C113.998 137.286 114.725 136.718 115.449 136.111L101.674 147.67ZM100.392 63.126C81.9168 99.0849 68.5122 129.851 90.5493 140.366L76.7612 151.937C54.7234 141.422 68.1277 110.655 86.603 74.6963L100.392 63.126ZM134.883 16.8496C123.383 34.3496 111.399 41.7032 100.392 63.126L86.603 74.6953C97.6098 53.2726 108.8 33.1531 119.883 23.8496L134.883 16.8496Z" fill="white"/>
<path d="M101.674 147.67L101.032 146.904L101.031 146.904L101.674 147.67ZM93.5552 152.716L93.1828 151.788L93.1828 151.788L93.5552 152.716ZM90.8774 153.595L91.1251 154.564H91.1251L90.8774 153.595ZM89.3325 153.926L89.163 152.94H89.163L89.3325 153.926ZM88.1626 154.09L88.271 155.084H88.271L88.1626 154.09ZM86.5894 154.195L86.5644 153.196L86.5643 153.196L86.5894 154.195ZM85.7964 154.198L85.7793 155.198H85.7794L85.7964 154.198ZM84.5981 154.14L84.6781 153.143H84.678L84.5981 154.14ZM82.9849 153.942L82.8228 154.929L82.8228 154.929L82.9849 153.942ZM79.7007 153.127L80.0156 152.178H80.0156L79.7007 153.127ZM78.8677 152.833L78.5178 153.77H78.5178L78.8677 152.833ZM77.1851 152.135L77.6003 151.225L77.1851 152.135ZM76.7612 151.937L76.3306 152.839L76.3306 152.839L76.7612 151.937ZM90.5503 140.366L90.9809 139.464C90.6273 139.295 90.2077 139.348 89.9075 139.6L90.5503 140.366ZM90.9741 140.564L91.3893 139.655L90.9741 140.564ZM91.8169 140.932L91.4336 141.855H91.4336L91.8169 140.932ZM92.6558 141.262L93.0056 140.325H93.0056L92.6558 141.262ZM93.4888 141.556L93.1738 142.505H93.1738L93.4888 141.556ZM94.3159 141.813L94.5946 140.853L94.5945 140.853L94.3159 141.813ZM97.1753 142.434L97.0333 143.423L97.0333 143.423L97.1753 142.434ZM97.981 142.532L98.0819 141.537H98.0819L97.981 142.532ZM98.3823 142.569L98.3022 143.566H98.3022L98.3823 142.569ZM99.1821 142.616L99.2204 141.617H99.2204L99.1821 142.616ZM100.373 142.625L100.397 143.625H100.397L100.373 142.625ZM101.553 142.559L101.466 141.562L101.466 141.562L101.553 142.559ZM101.945 142.52L102.053 143.514H102.053L101.945 142.52ZM103.114 142.356L102.945 141.371H102.945L103.114 142.356ZM103.887 142.207L104.096 143.185H104.096L103.887 142.207ZM108.829 140.489L108.394 139.588L108.394 139.589L108.829 140.489ZM109.576 140.114L110.039 141H110.039L109.576 140.114ZM112.535 138.329L111.971 137.503V137.503L112.535 138.329ZM113.267 137.814L112.681 137.004L113.267 137.814ZM115.449 136.111L116.092 136.877C116.515 136.522 116.57 135.892 116.215 135.469C115.86 135.046 115.229 134.99 114.806 135.345L115.449 136.111ZM100.392 63.126L101.282 63.583L100.392 63.126ZM90.5493 140.366L91.1921 141.132C91.4527 140.914 91.5842 140.577 91.5413 140.24C91.4984 139.903 91.2869 139.61 90.98 139.464L90.5493 140.366ZM86.603 74.6963L85.9602 73.9302C85.8583 74.0158 85.7744 74.1209 85.7136 74.2393L86.603 74.6963ZM134.883 16.8496L135.719 17.3988C135.965 17.0251 135.932 16.5337 135.64 16.1955C135.347 15.8572 134.866 15.7543 134.46 15.9434L134.883 16.8496ZM86.603 74.6953L85.7136 74.2383C85.496 74.6618 85.6071 75.1799 85.9792 75.4769C86.3512 75.7738 86.8811 75.7674 87.2458 75.4614L86.603 74.6953ZM119.883 23.8496L119.46 22.9434C119.381 22.9804 119.307 23.0275 119.24 23.0837L119.883 23.8496ZM101.674 147.67L101.031 146.904C98.4417 149.078 95.8319 150.725 93.1828 151.788L93.5552 152.716L93.9276 153.644C96.8161 152.485 99.6054 150.712 102.317 148.436L101.674 147.67ZM93.5552 152.716L93.1828 151.788C92.3364 152.127 91.4857 152.407 90.6298 152.626L90.8774 153.595L91.1251 154.564C92.0694 154.322 93.0035 154.015 93.9276 153.644L93.5552 152.716ZM90.8774 153.595L90.6298 152.626C90.1416 152.751 89.6529 152.856 89.163 152.94L89.3325 153.926L89.502 154.911C90.0474 154.818 90.5883 154.701 91.1251 154.564L90.8774 153.595ZM89.3325 153.926L89.163 152.94C88.7952 153.004 88.4255 153.055 88.0542 153.096L88.1626 154.09L88.271 155.084C88.6826 155.039 89.093 154.982 89.502 154.911L89.3325 153.926ZM88.1626 154.09L88.0542 153.096C87.56 153.15 87.0634 153.183 86.5644 153.196L86.5894 154.195L86.6144 155.195C87.1698 155.181 87.722 155.144 88.271 155.084L88.1626 154.09ZM86.5894 154.195L86.5643 153.196C86.3153 153.202 86.065 153.203 85.8134 153.198L85.7964 154.198L85.7794 155.198C86.0579 155.203 86.3362 155.202 86.6144 155.195L86.5894 154.195ZM85.7964 154.198L85.8134 153.198C85.4372 153.192 85.0588 153.173 84.6781 153.143L84.5981 154.14L84.5182 155.136C84.9397 155.17 85.3601 155.191 85.7793 155.198L85.7964 154.198ZM84.5981 154.14L84.678 153.143C84.1711 153.102 83.6608 153.04 83.1469 152.956L82.9849 153.942L82.8228 154.929C83.3906 155.022 83.9558 155.091 84.5182 155.136L84.5981 154.14ZM82.9849 153.942L83.1469 152.956C82.1189 152.787 81.0755 152.529 80.0156 152.178L79.7007 153.127L79.3858 154.076C80.5418 154.46 81.6873 154.743 82.8228 154.929L82.9849 153.942ZM79.7007 153.127L80.0156 152.178C79.751 152.09 79.4851 151.996 79.2175 151.896L78.8677 152.833L78.5178 153.77C78.8074 153.878 79.0967 153.98 79.3858 154.076L79.7007 153.127ZM78.8677 152.833L79.2175 151.896C78.6829 151.697 78.1438 151.473 77.6003 151.225L77.1851 152.135L76.7698 153.044C77.3551 153.312 77.9378 153.553 78.5178 153.77L78.8677 152.833ZM77.1851 152.135L77.6003 151.225C77.4657 151.164 77.3299 151.1 77.1918 151.034L76.7612 151.937L76.3306 152.839C76.4757 152.908 76.6222 152.977 76.7698 153.044L77.1851 152.135ZM76.7612 151.937L77.404 152.703L91.1931 141.132L90.5503 140.366L89.9075 139.6L76.1184 151.17L76.7612 151.937ZM90.5503 140.366L90.1197 141.269C90.2648 141.338 90.4113 141.407 90.5589 141.474L90.9741 140.564L91.3893 139.655C91.2548 139.593 91.1189 139.53 90.9809 139.464L90.5503 140.366ZM90.9741 140.564L90.5589 141.474C90.8512 141.608 91.1428 141.735 91.4336 141.855L91.8169 140.932L92.2002 140.008C91.931 139.896 91.6607 139.779 91.3893 139.655L90.9741 140.564ZM91.8169 140.932L91.4336 141.855C91.7262 141.977 92.0172 142.091 92.3059 142.199L92.6558 141.262L93.0056 140.325C92.737 140.225 92.4685 140.119 92.2002 140.008L91.8169 140.932ZM92.6558 141.262L92.3059 142.199C92.5955 142.307 92.8848 142.409 93.1738 142.505L93.4888 141.556L93.8037 140.607C93.5391 140.519 93.2731 140.425 93.0056 140.325L92.6558 141.262ZM93.4888 141.556L93.1738 142.505C93.4611 142.6 93.7489 142.69 94.0373 142.774L94.3159 141.813L94.5945 140.853C94.3331 140.777 94.0697 140.695 93.8037 140.607L93.4888 141.556ZM94.3159 141.813L94.0373 142.774C95.0441 143.066 96.0427 143.281 97.0333 143.423L97.1753 142.434L97.3173 141.444C96.4212 141.315 95.5139 141.12 94.5946 140.853L94.3159 141.813ZM97.1753 142.434L97.0333 143.423C97.3163 143.464 97.5985 143.499 97.8801 143.527L97.981 142.532L98.0819 141.537C97.8278 141.512 97.573 141.48 97.3172 141.444L97.1753 142.434ZM97.981 142.532L97.88 143.527C98.0176 143.541 98.1589 143.555 98.3022 143.566L98.3823 142.569L98.4625 141.573C98.3385 141.563 98.2123 141.551 98.0819 141.537L97.981 142.532ZM98.3823 142.569L98.3022 143.566C98.5849 143.589 98.8656 143.605 99.1438 143.615L99.1821 142.616L99.2204 141.617C98.967 141.607 98.7144 141.593 98.4625 141.573L98.3823 142.569ZM99.1821 142.616L99.1438 143.615C99.5622 143.632 99.98 143.635 100.397 143.625L100.373 142.625L100.348 141.625C99.9747 141.635 99.599 141.631 99.2204 141.617L99.1821 142.616ZM100.373 142.625L100.397 143.625C100.814 143.614 101.228 143.591 101.641 143.555L101.553 142.559L101.466 141.562C101.095 141.595 100.722 141.616 100.348 141.625L100.373 142.625ZM101.553 142.559L101.641 143.555C101.781 143.542 101.919 143.528 102.053 143.514L101.945 142.52L101.837 141.525C101.71 141.539 101.587 141.552 101.466 141.562L101.553 142.559ZM101.945 142.52L102.053 143.514C102.463 143.469 102.874 143.412 103.283 143.342L103.114 142.356L102.945 141.371C102.578 141.434 102.208 141.485 101.837 141.525L101.945 142.52ZM103.114 142.356L103.283 143.342C103.556 143.295 103.827 143.242 104.096 143.185L103.887 142.207L103.679 141.229C103.433 141.281 103.188 141.329 102.945 141.371L103.114 142.356ZM103.887 142.207L104.096 143.185C105.854 142.81 107.575 142.204 109.263 141.39L108.829 140.489L108.394 139.589C106.836 140.34 105.266 140.89 103.679 141.229L103.887 142.207ZM108.829 140.489L109.263 141.39C109.522 141.265 109.78 141.136 110.039 141L109.576 140.114L109.112 139.228C108.874 139.353 108.635 139.473 108.394 139.588L108.829 140.489ZM109.576 140.114L110.039 141C111.071 140.461 112.091 139.843 113.099 139.155L112.535 138.329L111.971 137.503C111.021 138.152 110.069 138.728 109.112 139.228L109.576 140.114ZM112.535 138.329L113.099 139.155C113.351 138.983 113.602 138.806 113.853 138.625L113.267 137.814L112.681 137.004C112.445 137.175 112.208 137.341 111.971 137.503L112.535 138.329ZM113.267 137.814L113.853 138.625C114.604 138.082 115.351 137.499 116.091 136.878L115.449 136.111L114.806 135.345C114.1 135.937 113.392 136.491 112.681 137.004L113.267 137.814ZM115.449 136.111L114.806 135.345L101.032 146.904L101.674 147.67L102.317 148.436L116.092 136.877L115.449 136.111ZM100.392 63.126L99.5026 62.669C90.275 80.6289 82.2392 97.426 79.3009 111.077C77.8303 117.91 77.6112 124.06 79.2386 129.219C80.8806 134.424 84.3745 138.528 90.1187 141.269L90.5493 140.366L90.98 139.464C85.7055 136.947 82.6111 133.262 81.1459 128.617C79.666 123.926 79.8209 118.166 81.2562 111.498C84.1297 98.1475 92.0339 81.582 101.282 63.583L100.392 63.126ZM90.5493 140.366L89.9065 139.6L76.1184 151.171L76.7612 151.937L77.404 152.703L91.1921 141.132L90.5493 140.366ZM76.7612 151.937L77.1919 151.034C71.9173 148.517 68.8227 144.832 67.3574 140.188C65.8774 135.497 66.0321 129.737 67.4673 123.068C70.3407 109.718 78.2448 93.1524 87.4925 75.1533L86.603 74.6963L85.7136 74.2393C76.4859 92.1993 68.4502 108.996 65.5121 122.648C64.0415 129.48 63.8226 135.631 65.4501 140.789C67.0922 145.994 70.5863 150.098 76.3306 152.839L76.7612 151.937ZM86.603 74.6963L87.2458 75.4623L101.035 63.892L100.392 63.126L99.7493 62.3599L85.9602 73.9302L86.603 74.6963ZM134.883 16.8496L134.048 16.3004C128.344 24.9791 122.535 31.1248 116.697 37.8618C110.863 44.5945 105.058 51.8571 99.5026 62.669L100.392 63.126L101.282 63.583C106.733 52.972 112.424 45.8465 118.208 39.1716C123.989 32.5012 129.922 26.2201 135.719 17.3988L134.883 16.8496ZM100.392 63.126L99.7493 62.3599L85.9603 73.9292L86.603 74.6953L87.2458 75.4614L101.035 63.8921L100.392 63.126ZM86.603 74.6953L87.4925 75.1523C92.9936 64.4453 98.5268 54.0914 104.062 45.2588C109.606 36.4119 115.107 29.1642 120.526 24.6155L119.883 23.8496L119.24 23.0837C113.576 27.8385 107.941 35.3023 102.367 44.1967C96.7844 53.1054 91.2191 63.5226 85.7136 74.2383L86.603 74.6953ZM119.883 23.8496L120.306 24.7558L135.306 17.7558L134.883 16.8496L134.46 15.9434L119.46 22.9434L119.883 23.8496Z" fill="url(#paint0_linear_387_71)" mask="url(#path-2-outside-1_387_71)"/>
<path d="M144.633 94.3482C126.218 130.338 109.714 157.901 87.6589 147.423C65.6036 136.945 78.9568 106.156 97.3721 70.1658C115.787 34.1757 130.644 4.96336 154.346 17.0912C178.049 29.219 163.049 58.3581 144.633 94.3482Z" fill="url(#paint1_linear_387_71)"/>
<path d="M13.2856 19.917C18.9024 16.9848 24.0411 16.6599 28.9038 18.3584C33.7897 20.065 38.4475 23.8323 43.0405 29.1826C52.2334 39.8912 61.0196 56.7578 70.7856 75.4648C80.5457 94.1604 88.801 111.099 92.0513 124.803C93.6756 131.651 94.0375 137.645 92.7456 142.623C91.4592 147.58 88.5254 151.564 83.478 154.405C78.4381 157.243 73.5889 157.532 68.8286 155.818C64.0429 154.095 59.313 150.334 54.5776 145.002C45.1044 134.335 35.7517 117.546 25.9917 98.8506C16.2255 80.1433 7.40947 63.2914 3.87842 49.627C2.11425 42.8 1.68587 36.8252 3.07861 31.8408C4.46485 26.88 7.66886 22.8492 13.2856 19.917Z" fill="white" stroke="#85C48D" stroke-width="0.970096"/>
<mask id="path-6-inside-2_387_71" fill="white">
<path d="M19.0942 14.4248C8.79331 28.9729 22.6414 55.4993 39.1743 87.168L39.3501 87.5039C58.8609 124.877 76.862 154.879 97.5044 143.257L83.7163 154.827C63.7191 166.086 46.1998 138.282 27.3862 102.556L25.561 99.0742L25.3853 98.7373C5.95527 61.5194 -9.76618 31.4045 13.061 19.4873L19.0942 14.4248Z"/>
</mask>
<path d="M19.0942 14.4248C8.79331 28.9729 22.6414 55.4993 39.1743 87.168L39.3501 87.5039C58.8609 124.877 76.862 154.879 97.5044 143.257L83.7163 154.827C63.7191 166.086 46.1998 138.282 27.3862 102.556L25.561 99.0742L25.3853 98.7373C5.95527 61.5194 -9.76618 31.4045 13.061 19.4873L19.0942 14.4248Z" fill="white"/>
<path d="M19.0942 14.4248L19.9104 15.0027C20.2009 14.5923 20.1416 14.03 19.7718 13.6893C19.4019 13.3486 18.8366 13.3355 18.4514 13.6588L19.0942 14.4248ZM39.1743 87.168L38.2878 87.6308L38.2883 87.6316L39.1743 87.168ZM39.3501 87.5039L40.2366 87.0411L40.2361 87.0403L39.3501 87.5039ZM97.5044 143.257L98.1472 144.023C98.5428 143.691 98.6206 143.112 98.3266 142.688C98.0327 142.263 97.4638 142.132 97.0138 142.385L97.5044 143.257ZM83.7163 154.827L84.2069 155.699C84.2608 155.668 84.3118 155.633 84.3591 155.593L83.7163 154.827ZM27.3862 102.556L26.5006 103.02L26.5014 103.022L27.3862 102.556ZM25.561 99.0742L24.6744 99.5368L24.6754 99.5385L25.561 99.0742ZM25.3853 98.7373L26.2718 98.2747L26.2717 98.2745L25.3853 98.7373ZM13.061 19.4873L13.5238 20.3738C13.588 20.3403 13.6484 20.2999 13.7038 20.2533L13.061 19.4873ZM19.0942 14.4248L18.2781 13.8469C12.823 21.5513 13.8728 32.2571 18.1253 44.6996C22.3964 57.1961 30.0338 71.8202 38.2878 87.6308L39.1743 87.168L40.0608 86.7052C31.7819 70.8471 24.2288 56.3736 20.0178 44.0527C15.7883 31.6778 15.0646 21.8464 19.9104 15.0027L19.0942 14.4248ZM39.1743 87.168L38.2883 87.6316L38.4641 87.9675L39.3501 87.5039L40.2361 87.0403L40.0603 86.7043L39.1743 87.168ZM39.3501 87.5039L38.4636 87.9667C48.2094 106.635 57.6404 123.591 67.2552 134.417C72.0649 139.833 76.9934 143.801 82.1143 145.645C87.2878 147.507 92.5857 147.174 97.995 144.128L97.5044 143.257L97.0138 142.385C92.1019 145.151 87.4088 145.425 82.7917 143.763C78.122 142.082 73.4603 138.393 68.7506 133.089C59.3265 122.477 50.0016 105.746 40.2366 87.0411L39.3501 87.5039ZM97.5044 143.257L96.8616 142.491L83.0735 154.061L83.7163 154.827L84.3591 155.593L98.1472 144.023L97.5044 143.257ZM83.7163 154.827L83.2257 153.956C78.4648 156.636 73.9128 156.974 69.4401 155.485C64.9191 153.979 60.4037 150.579 55.8425 145.633C46.7133 135.734 37.6853 119.967 28.271 102.09L27.3862 102.556L26.5014 103.022C35.9007 120.871 45.0391 136.869 54.3723 146.989C59.0423 152.052 63.832 155.725 68.8081 157.382C73.8324 159.056 78.9692 158.647 84.2069 155.699L83.7163 154.827ZM27.3862 102.556L28.2719 102.091L26.4467 98.6099L25.561 99.0742L24.6754 99.5385L26.5006 103.02L27.3862 102.556ZM25.561 99.0742L26.4476 98.6117L26.2718 98.2747L25.3853 98.7373L24.4987 99.1999L24.6744 99.5368L25.561 99.0742ZM25.3853 98.7373L26.2717 98.2745C16.5349 79.6236 7.81563 62.9085 4.34535 49.3761C2.61292 42.6204 2.22216 36.7742 3.58659 31.9353C4.93744 27.1445 8.03733 23.238 13.5238 20.3738L13.061 19.4873L12.5982 18.6008C6.67113 21.6951 3.176 26.0219 1.66165 31.3925C0.160889 36.7149 0.634763 42.958 2.40804 49.8729C5.94918 63.6817 14.8057 80.633 24.4988 99.2001L25.3853 98.7373ZM13.061 19.4873L13.7038 20.2533L19.737 15.1908L19.0942 14.4248L18.4514 13.6588L12.4182 18.7213L13.061 19.4873Z" fill="#85C48D" mask="url(#path-6-inside-2_387_71)"/>
<path d="M81.0046 67.6703C100.515 105.044 114.147 135.636 93.5049 147.258C72.8625 158.879 54.8612 128.878 35.3504 91.5043C15.8396 54.131 -0.04622 23.8701 22.8501 11.917C45.7464 -0.0360465 61.4939 30.2971 81.0046 67.6703Z" fill="#85C48D"/>
<path d="M141.355 19.6162C145.406 19.0004 149.729 19.7417 154.438 22.1611C160.257 25.151 163.657 29.1563 165.242 34.0166C166.833 38.897 166.613 44.6991 165.068 51.3018C161.974 64.5219 153.629 80.7264 144.379 98.7285C138.941 109.314 133.676 119.155 128.394 127.506C123.109 135.861 117.824 142.695 112.353 147.287C108.537 150.491 104.649 152.588 100.625 153.364C96.6098 154.139 92.4194 153.605 87.9761 151.485C82.5842 148.913 79.3898 145.123 77.8804 140.338C76.3637 135.53 76.535 129.672 77.979 122.963C80.8688 109.537 88.8057 92.914 98.0483 74.9248C103.554 64.2089 108.732 54.1149 113.917 45.5371C119.106 36.9546 124.277 29.9307 129.754 25.333C133.466 22.2175 137.299 20.2329 141.355 19.6162Z" fill="white" stroke="#EBC635"/>
<mask id="path-10-outside-3_387_71" maskUnits="userSpaceOnUse" x="75.3169" y="15.8496" width="72" height="140" fill="black">
<rect fill="white" x="75.3169" y="15.8496" width="72" height="140"/>
<path d="M112.674 147.67C110.024 149.895 107.324 151.605 104.555 152.716C103.67 153.071 102.778 153.365 101.877 153.595C101.365 153.726 100.85 153.837 100.333 153.926C99.9441 153.993 99.5541 154.047 99.1626 154.09C98.641 154.147 98.1166 154.182 97.5894 154.195C97.3258 154.202 97.0614 154.203 96.7964 154.198C96.3986 154.191 95.9992 154.172 95.5981 154.14C95.0634 154.097 94.5257 154.031 93.9849 153.942C92.9031 153.765 91.8086 153.495 90.7007 153.127C90.4239 153.035 90.1462 152.937 89.8677 152.833C89.3103 152.625 88.7495 152.392 88.1851 152.135C88.044 152.07 87.9028 152.004 87.7612 151.937L101.55 140.366C101.692 140.434 101.833 140.5 101.974 140.564C102.256 140.693 102.537 140.815 102.817 140.932C103.097 141.048 103.377 141.158 103.656 141.262C103.934 141.366 104.212 141.464 104.489 141.556C104.765 141.647 105.041 141.734 105.316 141.813C106.279 142.093 107.232 142.298 108.175 142.434C108.445 142.472 108.713 142.505 108.981 142.532C109.115 142.546 109.249 142.559 109.382 142.569C109.65 142.591 109.916 142.606 110.182 142.616C110.581 142.631 110.977 142.635 111.373 142.625C111.768 142.615 112.161 142.593 112.553 142.559C112.684 142.547 112.814 142.534 112.945 142.52C113.336 142.477 113.726 142.423 114.114 142.356C114.372 142.312 114.63 142.262 114.887 142.207C116.56 141.85 118.206 141.272 119.829 140.489C120.078 140.369 120.327 140.244 120.576 140.114C121.57 139.594 122.556 138.998 123.535 138.329C123.779 138.162 124.023 137.991 124.267 137.814C124.998 137.286 125.725 136.718 126.449 136.111L112.674 147.67ZM111.392 63.126C92.9168 99.0849 79.5122 129.851 101.549 140.366L87.7612 151.937C65.7234 141.422 79.1277 110.655 97.603 74.6963L111.392 63.126ZM145.883 16.8496C134.383 34.3496 122.399 41.7032 111.392 63.126L97.603 74.6953C108.61 53.2726 119.8 33.1531 130.883 23.8496L145.883 16.8496Z"/>
</mask>
<path d="M112.674 147.67C110.024 149.895 107.324 151.605 104.555 152.716C103.67 153.071 102.778 153.365 101.877 153.595C101.365 153.726 100.85 153.837 100.333 153.926C99.9441 153.993 99.5541 154.047 99.1626 154.09C98.641 154.147 98.1166 154.182 97.5894 154.195C97.3258 154.202 97.0614 154.203 96.7964 154.198C96.3986 154.191 95.9992 154.172 95.5981 154.14C95.0634 154.097 94.5257 154.031 93.9849 153.942C92.9031 153.765 91.8086 153.495 90.7007 153.127C90.4239 153.035 90.1462 152.937 89.8677 152.833C89.3103 152.625 88.7495 152.392 88.1851 152.135C88.044 152.07 87.9028 152.004 87.7612 151.937L101.55 140.366C101.692 140.434 101.833 140.5 101.974 140.564C102.256 140.693 102.537 140.815 102.817 140.932C103.097 141.048 103.377 141.158 103.656 141.262C103.934 141.366 104.212 141.464 104.489 141.556C104.765 141.647 105.041 141.734 105.316 141.813C106.279 142.093 107.232 142.298 108.175 142.434C108.445 142.472 108.713 142.505 108.981 142.532C109.115 142.546 109.249 142.559 109.382 142.569C109.65 142.591 109.916 142.606 110.182 142.616C110.581 142.631 110.977 142.635 111.373 142.625C111.768 142.615 112.161 142.593 112.553 142.559C112.684 142.547 112.814 142.534 112.945 142.52C113.336 142.477 113.726 142.423 114.114 142.356C114.372 142.312 114.63 142.262 114.887 142.207C116.56 141.85 118.206 141.272 119.829 140.489C120.078 140.369 120.327 140.244 120.576 140.114C121.57 139.594 122.556 138.998 123.535 138.329C123.779 138.162 124.023 137.991 124.267 137.814C124.998 137.286 125.725 136.718 126.449 136.111L112.674 147.67ZM111.392 63.126C92.9168 99.0849 79.5122 129.851 101.549 140.366L87.7612 151.937C65.7234 141.422 79.1277 110.655 97.603 74.6963L111.392 63.126ZM145.883 16.8496C134.383 34.3496 122.399 41.7032 111.392 63.126L97.603 74.6953C108.61 53.2726 119.8 33.1531 130.883 23.8496L145.883 16.8496Z" fill="white"/>
<path d="M112.674 147.67L112.032 146.904L112.031 146.904L112.674 147.67ZM104.555 152.716L104.183 151.788L104.183 151.788L104.555 152.716ZM101.877 153.595L102.125 154.564H102.125L101.877 153.595ZM100.333 153.926L100.163 152.94H100.163L100.333 153.926ZM99.1626 154.09L99.271 155.084H99.271L99.1626 154.09ZM97.5894 154.195L97.5644 153.196L97.5643 153.196L97.5894 154.195ZM96.7964 154.198L96.7793 155.198H96.7794L96.7964 154.198ZM95.5981 154.14L95.6781 153.143H95.678L95.5981 154.14ZM93.9849 153.942L93.8228 154.929L93.8228 154.929L93.9849 153.942ZM90.7007 153.127L91.0156 152.178H91.0156L90.7007 153.127ZM89.8677 152.833L89.5178 153.77H89.5178L89.8677 152.833ZM88.1851 152.135L88.6003 151.225L88.1851 152.135ZM87.7612 151.937L87.3306 152.839L87.3306 152.839L87.7612 151.937ZM101.55 140.366L101.981 139.464C101.627 139.295 101.208 139.348 100.908 139.6L101.55 140.366ZM101.974 140.564L102.389 139.655L101.974 140.564ZM102.817 140.932L102.434 141.855H102.434L102.817 140.932ZM103.656 141.262L104.006 140.325H104.006L103.656 141.262ZM104.489 141.556L104.174 142.505H104.174L104.489 141.556ZM105.316 141.813L105.595 140.853L105.595 140.853L105.316 141.813ZM108.175 142.434L108.033 143.423L108.033 143.423L108.175 142.434ZM108.981 142.532L109.082 141.537H109.082L108.981 142.532ZM109.382 142.569L109.302 143.566H109.302L109.382 142.569ZM110.182 142.616L110.22 141.617H110.22L110.182 142.616ZM111.373 142.625L111.397 143.625H111.397L111.373 142.625ZM112.553 142.559L112.466 141.562L112.466 141.562L112.553 142.559ZM112.945 142.52L113.053 143.514H113.053L112.945 142.52ZM114.114 142.356L113.945 141.371H113.945L114.114 142.356ZM114.887 142.207L115.096 143.185H115.096L114.887 142.207ZM119.829 140.489L119.394 139.588L119.394 139.589L119.829 140.489ZM120.576 140.114L121.039 141H121.039L120.576 140.114ZM123.535 138.329L122.971 137.503V137.503L123.535 138.329ZM124.267 137.814L123.681 137.004L124.267 137.814ZM126.449 136.111L127.092 136.877C127.515 136.522 127.57 135.892 127.215 135.469C126.86 135.046 126.229 134.99 125.806 135.345L126.449 136.111ZM111.392 63.126L112.282 63.583L111.392 63.126ZM101.549 140.366L102.192 141.132C102.453 140.914 102.584 140.577 102.541 140.24C102.498 139.903 102.287 139.61 101.98 139.464L101.549 140.366ZM97.603 74.6963L96.9602 73.9302C96.8583 74.0158 96.7744 74.1209 96.7136 74.2393L97.603 74.6963ZM145.883 16.8496L146.719 17.3988C146.965 17.0251 146.932 16.5337 146.64 16.1955C146.347 15.8572 145.866 15.7543 145.46 15.9434L145.883 16.8496ZM97.603 74.6953L96.7136 74.2383C96.496 74.6618 96.6071 75.1799 96.9792 75.4769C97.3512 75.7738 97.8811 75.7674 98.2458 75.4614L97.603 74.6953ZM130.883 23.8496L130.46 22.9434C130.381 22.9804 130.307 23.0275 130.24 23.0837L130.883 23.8496ZM112.674 147.67L112.031 146.904C109.442 149.078 106.832 150.725 104.183 151.788L104.555 152.716L104.928 153.644C107.816 152.485 110.605 150.712 113.317 148.436L112.674 147.67ZM104.555 152.716L104.183 151.788C103.336 152.127 102.486 152.407 101.63 152.626L101.877 153.595L102.125 154.564C103.069 154.322 104.003 154.015 104.928 153.644L104.555 152.716ZM101.877 153.595L101.63 152.626C101.142 152.751 100.653 152.856 100.163 152.94L100.333 153.926L100.502 154.911C101.047 154.818 101.588 154.701 102.125 154.564L101.877 153.595ZM100.333 153.926L100.163 152.94C99.7952 153.004 99.4255 153.055 99.0542 153.096L99.1626 154.09L99.271 155.084C99.6826 155.039 100.093 154.982 100.502 154.911L100.333 153.926ZM99.1626 154.09L99.0542 153.096C98.56 153.15 98.0634 153.183 97.5644 153.196L97.5894 154.195L97.6144 155.195C98.1698 155.181 98.722 155.144 99.271 155.084L99.1626 154.09ZM97.5894 154.195L97.5643 153.196C97.3153 153.202 97.065 153.203 96.8134 153.198L96.7964 154.198L96.7794 155.198C97.0579 155.203 97.3362 155.202 97.6144 155.195L97.5894 154.195ZM96.7964 154.198L96.8134 153.198C96.4372 153.192 96.0588 153.173 95.6781 153.143L95.5981 154.14L95.5182 155.136C95.9397 155.17 96.3601 155.191 96.7793 155.198L96.7964 154.198ZM95.5981 154.14L95.678 153.143C95.1711 153.102 94.6608 153.04 94.1469 152.956L93.9849 153.942L93.8228 154.929C94.3906 155.022 94.9558 155.091 95.5182 155.136L95.5981 154.14ZM93.9849 153.942L94.1469 152.956C93.1189 152.787 92.0755 152.529 91.0156 152.178L90.7007 153.127L90.3858 154.076C91.5418 154.46 92.6873 154.743 93.8228 154.929L93.9849 153.942ZM90.7007 153.127L91.0156 152.178C90.751 152.09 90.4851 151.996 90.2175 151.896L89.8677 152.833L89.5178 153.77C89.8074 153.878 90.0967 153.98 90.3858 154.076L90.7007 153.127ZM89.8677 152.833L90.2175 151.896C89.6829 151.697 89.1438 151.473 88.6003 151.225L88.1851 152.135L87.7698 153.044C88.3551 153.312 88.9378 153.553 89.5178 153.77L89.8677 152.833ZM88.1851 152.135L88.6003 151.225C88.4657 151.164 88.3299 151.1 88.1918 151.034L87.7612 151.937L87.3306 152.839C87.4757 152.908 87.6222 152.977 87.7698 153.044L88.1851 152.135ZM87.7612 151.937L88.404 152.703L102.193 141.132L101.55 140.366L100.908 139.6L87.1184 151.17L87.7612 151.937ZM101.55 140.366L101.12 141.269C101.265 141.338 101.411 141.407 101.559 141.474L101.974 140.564L102.389 139.655C102.255 139.593 102.119 139.53 101.981 139.464L101.55 140.366ZM101.974 140.564L101.559 141.474C101.851 141.608 102.143 141.735 102.434 141.855L102.817 140.932L103.2 140.008C102.931 139.896 102.661 139.779 102.389 139.655L101.974 140.564ZM102.817 140.932L102.434 141.855C102.726 141.977 103.017 142.091 103.306 142.199L103.656 141.262L104.006 140.325C103.737 140.225 103.468 140.119 103.2 140.008L102.817 140.932ZM103.656 141.262L103.306 142.199C103.596 142.307 103.885 142.409 104.174 142.505L104.489 141.556L104.804 140.607C104.539 140.519 104.273 140.425 104.006 140.325L103.656 141.262ZM104.489 141.556L104.174 142.505C104.461 142.6 104.749 142.69 105.037 142.774L105.316 141.813L105.595 140.853C105.333 140.777 105.07 140.695 104.804 140.607L104.489 141.556ZM105.316 141.813L105.037 142.774C106.044 143.066 107.043 143.281 108.033 143.423L108.175 142.434L108.317 141.444C107.421 141.315 106.514 141.12 105.595 140.853L105.316 141.813ZM108.175 142.434L108.033 143.423C108.316 143.464 108.598 143.499 108.88 143.527L108.981 142.532L109.082 141.537C108.828 141.512 108.573 141.48 108.317 141.444L108.175 142.434ZM108.981 142.532L108.88 143.527C109.018 143.541 109.159 143.555 109.302 143.566L109.382 142.569L109.462 141.573C109.338 141.563 109.212 141.551 109.082 141.537L108.981 142.532ZM109.382 142.569L109.302 143.566C109.585 143.589 109.866 143.605 110.144 143.615L110.182 142.616L110.22 141.617C109.967 141.607 109.714 141.593 109.462 141.573L109.382 142.569ZM110.182 142.616L110.144 143.615C110.562 143.632 110.98 143.635 111.397 143.625L111.373 142.625L111.348 141.625C110.975 141.635 110.599 141.631 110.22 141.617L110.182 142.616ZM111.373 142.625L111.397 143.625C111.814 143.614 112.228 143.591 112.641 143.555L112.553 142.559L112.466 141.562C112.095 141.595 111.722 141.616 111.348 141.625L111.373 142.625ZM112.553 142.559L112.641 143.555C112.781 143.542 112.919 143.528 113.053 143.514L112.945 142.52L112.837 141.525C112.71 141.539 112.587 141.552 112.466 141.562L112.553 142.559ZM112.945 142.52L113.053 143.514C113.463 143.469 113.874 143.412 114.283 143.342L114.114 142.356L113.945 141.371C113.578 141.434 113.208 141.485 112.837 141.525L112.945 142.52ZM114.114 142.356L114.283 143.342C114.556 143.295 114.827 143.242 115.096 143.185L114.887 142.207L114.679 141.229C114.433 141.281 114.188 141.329 113.945 141.371L114.114 142.356ZM114.887 142.207L115.096 143.185C116.854 142.81 118.575 142.204 120.263 141.39L119.829 140.489L119.394 139.589C117.836 140.34 116.266 140.89 114.679 141.229L114.887 142.207ZM119.829 140.489L120.263 141.39C120.522 141.265 120.78 141.136 121.039 141L120.576 140.114L120.112 139.228C119.874 139.353 119.635 139.473 119.394 139.588L119.829 140.489ZM120.576 140.114L121.039 141C122.071 140.461 123.091 139.843 124.099 139.155L123.535 138.329L122.971 137.503C122.021 138.152 121.069 138.728 120.112 139.228L120.576 140.114ZM123.535 138.329L124.099 139.155C124.351 138.983 124.602 138.806 124.853 138.625L124.267 137.814L123.681 137.004C123.445 137.175 123.208 137.341 122.971 137.503L123.535 138.329ZM124.267 137.814L124.853 138.625C125.604 138.082 126.351 137.499 127.091 136.878L126.449 136.111L125.806 135.345C125.1 135.937 124.392 136.491 123.681 137.004L124.267 137.814ZM126.449 136.111L125.806 135.345L112.032 146.904L112.674 147.67L113.317 148.436L127.092 136.877L126.449 136.111ZM111.392 63.126L110.503 62.669C101.275 80.6289 93.2392 97.426 90.3009 111.077C88.8303 117.91 88.6112 124.06 90.2386 129.219C91.8806 134.424 95.3745 138.528 101.119 141.269L101.549 140.366L101.98 139.464C96.7055 136.947 93.6111 133.262 92.1459 128.617C90.666 123.926 90.8209 118.166 92.2562 111.498C95.1297 98.1475 103.034 81.582 112.282 63.583L111.392 63.126ZM101.549 140.366L100.907 139.6L87.1184 151.171L87.7612 151.937L88.404 152.703L102.192 141.132L101.549 140.366ZM87.7612 151.937L88.1919 151.034C82.9173 148.517 79.8227 144.832 78.3574 140.188C76.8774 135.497 77.0321 129.737 78.4673 123.068C81.3407 109.718 89.2448 93.1524 98.4925 75.1533L97.603 74.6963L96.7136 74.2393C87.4859 92.1993 79.4502 108.996 76.5121 122.648C75.0415 129.48 74.8226 135.631 76.4501 140.789C78.0922 145.994 81.5863 150.098 87.3306 152.839L87.7612 151.937ZM97.603 74.6963L98.2458 75.4623L112.035 63.892L111.392 63.126L110.749 62.3599L96.9602 73.9302L97.603 74.6963ZM145.883 16.8496L145.048 16.3004C139.344 24.9791 133.535 31.1248 127.697 37.8618C121.863 44.5945 116.058 51.8571 110.503 62.669L111.392 63.126L112.282 63.583C117.733 52.972 123.424 45.8465 129.208 39.1716C134.989 32.5012 140.922 26.2201 146.719 17.3988L145.883 16.8496ZM111.392 63.126L110.749 62.3599L96.9603 73.9292L97.603 74.6953L98.2458 75.4614L112.035 63.8921L111.392 63.126ZM97.603 74.6953L98.4925 75.1523C103.994 64.4453 109.527 54.0914 115.062 45.2588C120.606 36.4119 126.107 29.1642 131.526 24.6155L130.883 23.8496L130.24 23.0837C124.576 27.8385 118.941 35.3023 113.367 44.1967C107.784 53.1054 102.219 63.5226 96.7136 74.2383L97.603 74.6953ZM130.883 23.8496L131.306 24.7558L146.306 17.7558L145.883 16.8496L145.46 15.9434L130.46 22.9434L130.883 23.8496Z" fill="url(#paint2_linear_387_71)" mask="url(#path-10-outside-3_387_71)"/>
<path d="M155.633 94.3482C137.218 130.338 120.714 157.901 98.6589 147.423C76.6036 136.945 89.9568 106.156 108.372 70.1658C126.787 34.1757 141.644 4.96336 165.346 17.0912C189.049 29.219 174.049 58.3581 155.633 94.3482Z" fill="url(#paint3_linear_387_71)"/>
<path d="M29.2856 19.917C34.9024 16.9848 40.0411 16.6599 44.9038 18.3584C49.7897 20.065 54.4475 23.8323 59.0405 29.1826C68.2334 39.8912 77.0196 56.7578 86.7856 75.4648C96.5457 94.1604 104.801 111.099 108.051 124.803C109.676 131.651 110.038 137.645 108.746 142.623C107.459 147.58 104.525 151.564 99.478 154.405C94.4381 157.243 89.5889 157.532 84.8286 155.818C80.0429 154.095 75.313 150.334 70.5776 145.002C61.1044 134.335 51.7517 117.546 41.9917 98.8506C32.2255 80.1433 23.4095 63.2914 19.8784 49.627C18.1142 42.8 17.6859 36.8252 19.0786 31.8408C20.4649 26.88 23.6689 22.8492 29.2856 19.917Z" fill="white" stroke="#85C48D" stroke-width="0.970096"/>
<mask id="path-14-inside-4_387_71" fill="white">
<path d="M35.0942 14.4248C24.7933 28.9729 38.6414 55.4993 55.1743 87.168L55.3501 87.5039C74.8609 124.877 92.862 154.879 113.504 143.257L99.7163 154.827C79.7191 166.086 62.1998 138.282 43.3862 102.556L41.561 99.0742L41.3853 98.7373C21.9553 61.5194 6.23382 31.4045 29.061 19.4873L35.0942 14.4248Z"/>
</mask>
<path d="M35.0942 14.4248C24.7933 28.9729 38.6414 55.4993 55.1743 87.168L55.3501 87.5039C74.8609 124.877 92.862 154.879 113.504 143.257L99.7163 154.827C79.7191 166.086 62.1998 138.282 43.3862 102.556L41.561 99.0742L41.3853 98.7373C21.9553 61.5194 6.23382 31.4045 29.061 19.4873L35.0942 14.4248Z" fill="white"/>
<path d="M35.0942 14.4248L35.9104 15.0027C36.2009 14.5923 36.1416 14.03 35.7718 13.6893C35.4019 13.3486 34.8366 13.3355 34.4514 13.6588L35.0942 14.4248ZM55.1743 87.168L54.2878 87.6308L54.2883 87.6316L55.1743 87.168ZM55.3501 87.5039L56.2366 87.0411L56.2361 87.0403L55.3501 87.5039ZM113.504 143.257L114.147 144.023C114.543 143.691 114.621 143.112 114.327 142.688C114.033 142.263 113.464 142.132 113.014 142.385L113.504 143.257ZM99.7163 154.827L100.207 155.699C100.261 155.668 100.312 155.633 100.359 155.593L99.7163 154.827ZM43.3862 102.556L42.5006 103.02L42.5014 103.022L43.3862 102.556ZM41.561 99.0742L40.6744 99.5368L40.6754 99.5385L41.561 99.0742ZM41.3853 98.7373L42.2718 98.2747L42.2717 98.2745L41.3853 98.7373ZM29.061 19.4873L29.5238 20.3738C29.588 20.3403 29.6484 20.2999 29.7038 20.2533L29.061 19.4873ZM35.0942 14.4248L34.2781 13.8469C28.823 21.5513 29.8728 32.2571 34.1253 44.6996C38.3964 57.1961 46.0338 71.8202 54.2878 87.6308L55.1743 87.168L56.0608 86.7052C47.7819 70.8471 40.2288 56.3736 36.0178 44.0527C31.7883 31.6778 31.0646 21.8464 35.9104 15.0027L35.0942 14.4248ZM55.1743 87.168L54.2883 87.6316L54.4641 87.9675L55.3501 87.5039L56.2361 87.0403L56.0603 86.7043L55.1743 87.168ZM55.3501 87.5039L54.4636 87.9667C64.2094 106.635 73.6404 123.591 83.2552 134.417C88.0649 139.833 92.9934 143.801 98.1143 145.645C103.288 147.507 108.586 147.174 113.995 144.128L113.504 143.257L113.014 142.385C108.102 145.151 103.409 145.425 98.7917 143.763C94.122 142.082 89.4603 138.393 84.7506 133.089C75.3265 122.477 66.0016 105.746 56.2366 87.0411L55.3501 87.5039ZM113.504 143.257L112.862 142.491L99.0735 154.061L99.7163 154.827L100.359 155.593L114.147 144.023L113.504 143.257ZM99.7163 154.827L99.2257 153.956C94.4648 156.636 89.9128 156.974 85.4401 155.485C80.9191 153.979 76.4037 150.579 71.8425 145.633C62.7133 135.734 53.6853 119.967 44.271 102.09L43.3862 102.556L42.5014 103.022C51.9007 120.871 61.0391 136.869 70.3723 146.989C75.0423 152.052 79.832 155.725 84.8081 157.382C89.8324 159.056 94.9692 158.647 100.207 155.699L99.7163 154.827ZM43.3862 102.556L44.2719 102.091L42.4467 98.6099L41.561 99.0742L40.6754 99.5385L42.5006 103.02L43.3862 102.556ZM41.561 99.0742L42.4476 98.6117L42.2718 98.2747L41.3853 98.7373L40.4987 99.1999L40.6744 99.5368L41.561 99.0742ZM41.3853 98.7373L42.2717 98.2745C32.5349 79.6236 23.8156 62.9085 20.3454 49.3761C18.6129 42.6204 18.2222 36.7742 19.5866 31.9353C20.9374 27.1445 24.0373 23.238 29.5238 20.3738L29.061 19.4873L28.5982 18.6008C22.6711 21.6951 19.176 26.0219 17.6617 31.3925C16.1609 36.7149 16.6348 42.958 18.408 49.8729C21.9492 63.6817 30.8057 80.633 40.4988 99.2001L41.3853 98.7373ZM29.061 19.4873L29.7038 20.2533L35.737 15.1908L35.0942 14.4248L34.4514 13.6588L28.4182 18.7213L29.061 19.4873Z" fill="#85C48D" mask="url(#path-14-inside-4_387_71)"/>
<path d="M97.0046 67.6703C116.515 105.044 130.147 135.636 109.505 147.258C88.8625 158.879 70.8612 128.878 51.3504 91.5043C31.8396 54.131 15.9538 23.8701 38.8501 11.917C61.7464 -0.0360465 77.4939 30.2971 97.0046 67.6703Z" fill="#85C48D"/>
<path d="M150.355 20.6162C154.406 20.0004 158.729 20.7417 163.438 23.1611C169.257 26.151 172.657 30.1563 174.242 35.0166C175.833 39.897 175.613 45.6991 174.068 52.3018C170.974 65.5219 162.629 81.7264 153.379 99.7285C147.941 110.314 142.676 120.155 137.394 128.506C132.109 136.861 126.824 143.695 121.353 148.287C117.537 151.491 113.649 153.588 109.625 154.364C105.61 155.139 101.419 154.605 96.9761 152.485C91.5842 149.913 88.3898 146.123 86.8804 141.338C85.3637 136.53 85.535 130.672 86.979 123.963C89.8688 110.537 97.8057 93.914 107.048 75.9248C112.554 65.2089 117.732 55.1149 122.917 46.5371C128.106 37.9546 133.277 30.9307 138.754 26.333C142.466 23.2175 146.299 21.2329 150.355 20.6162Z" fill="white" stroke="#EBC635"/>
<mask id="path-18-outside-5_387_71" maskUnits="userSpaceOnUse" x="84.3169" y="16.8496" width="72" height="140" fill="black">
<rect fill="white" x="84.3169" y="16.8496" width="72" height="140"/>
<path d="M121.674 148.67C119.024 150.895 116.324 152.605 113.555 153.716C112.67 154.071 111.778 154.365 110.877 154.595C110.365 154.726 109.85 154.837 109.333 154.926C108.944 154.993 108.554 155.047 108.163 155.09C107.641 155.147 107.117 155.182 106.589 155.195C106.326 155.202 106.061 155.203 105.796 155.198C105.399 155.191 104.999 155.172 104.598 155.14C104.063 155.097 103.526 155.031 102.985 154.942C101.903 154.765 100.809 154.495 99.7007 154.127C99.4239 154.035 99.1462 153.937 98.8677 153.833C98.3103 153.625 97.7495 153.392 97.1851 153.135C97.044 153.07 96.9028 153.004 96.7612 152.937L110.55 141.366C110.692 141.434 110.833 141.5 110.974 141.564C111.256 141.693 111.537 141.815 111.817 141.932C112.097 142.048 112.377 142.158 112.656 142.262C112.934 142.366 113.212 142.464 113.489 142.556C113.765 142.647 114.041 142.734 114.316 142.813C115.279 143.093 116.232 143.298 117.175 143.434C117.445 143.472 117.713 143.505 117.981 143.532C118.115 143.546 118.249 143.559 118.382 143.569C118.65 143.591 118.916 143.606 119.182 143.616C119.581 143.631 119.977 143.635 120.373 143.625C120.768 143.615 121.161 143.593 121.553 143.559C121.684 143.547 121.814 143.534 121.945 143.52C122.336 143.477 122.726 143.423 123.114 143.356C123.372 143.312 123.63 143.262 123.887 143.207C125.56 142.85 127.206 142.272 128.829 141.489C129.078 141.369 129.327 141.244 129.576 141.114C130.57 140.594 131.556 139.998 132.535 139.329C132.779 139.162 133.023 138.991 133.267 138.814C133.998 138.286 134.725 137.718 135.449 137.111L121.674 148.67ZM120.392 64.126C101.917 100.085 88.5122 130.851 110.549 141.366L96.7612 152.937C74.7234 142.422 88.1277 111.655 106.603 75.6963L120.392 64.126ZM154.883 17.8496C143.383 35.3496 131.399 42.7032 120.392 64.126L106.603 75.6953C117.61 54.2726 128.8 34.1531 139.883 24.8496L154.883 17.8496Z"/>
</mask>
<path d="M121.674 148.67C119.024 150.895 116.324 152.605 113.555 153.716C112.67 154.071 111.778 154.365 110.877 154.595C110.365 154.726 109.85 154.837 109.333 154.926C108.944 154.993 108.554 155.047 108.163 155.09C107.641 155.147 107.117 155.182 106.589 155.195C106.326 155.202 106.061 155.203 105.796 155.198C105.399 155.191 104.999 155.172 104.598 155.14C104.063 155.097 103.526 155.031 102.985 154.942C101.903 154.765 100.809 154.495 99.7007 154.127C99.4239 154.035 99.1462 153.937 98.8677 153.833C98.3103 153.625 97.7495 153.392 97.1851 153.135C97.044 153.07 96.9028 153.004 96.7612 152.937L110.55 141.366C110.692 141.434 110.833 141.5 110.974 141.564C111.256 141.693 111.537 141.815 111.817 141.932C112.097 142.048 112.377 142.158 112.656 142.262C112.934 142.366 113.212 142.464 113.489 142.556C113.765 142.647 114.041 142.734 114.316 142.813C115.279 143.093 116.232 143.298 117.175 143.434C117.445 143.472 117.713 143.505 117.981 143.532C118.115 143.546 118.249 143.559 118.382 143.569C118.65 143.591 118.916 143.606 119.182 143.616C119.581 143.631 119.977 143.635 120.373 143.625C120.768 143.615 121.161 143.593 121.553 143.559C121.684 143.547 121.814 143.534 121.945 143.52C122.336 143.477 122.726 143.423 123.114 143.356C123.372 143.312 123.63 143.262 123.887 143.207C125.56 142.85 127.206 142.272 128.829 141.489C129.078 141.369 129.327 141.244 129.576 141.114C130.57 140.594 131.556 139.998 132.535 139.329C132.779 139.162 133.023 138.991 133.267 138.814C133.998 138.286 134.725 137.718 135.449 137.111L121.674 148.67ZM120.392 64.126C101.917 100.085 88.5122 130.851 110.549 141.366L96.7612 152.937C74.7234 142.422 88.1277 111.655 106.603 75.6963L120.392 64.126ZM154.883 17.8496C143.383 35.3496 131.399 42.7032 120.392 64.126L106.603 75.6953C117.61 54.2726 128.8 34.1531 139.883 24.8496L154.883 17.8496Z" fill="white"/>
<path d="M121.674 148.67L121.032 147.904L121.031 147.904L121.674 148.67ZM113.555 153.716L113.183 152.788L113.183 152.788L113.555 153.716ZM110.877 154.595L111.125 155.564H111.125L110.877 154.595ZM109.333 154.926L109.163 153.94H109.163L109.333 154.926ZM108.163 155.09L108.271 156.084H108.271L108.163 155.09ZM106.589 155.195L106.564 154.196L106.564 154.196L106.589 155.195ZM105.796 155.198L105.779 156.198H105.779L105.796 155.198ZM104.598 155.14L104.678 154.143H104.678L104.598 155.14ZM102.985 154.942L102.823 155.929L102.823 155.929L102.985 154.942ZM99.7007 154.127L100.016 153.178H100.016L99.7007 154.127ZM98.8677 153.833L98.5178 154.77H98.5178L98.8677 153.833ZM97.1851 153.135L97.6003 152.225L97.1851 153.135ZM96.7612 152.937L96.3306 153.839L96.3306 153.839L96.7612 152.937ZM110.55 141.366L110.981 140.464C110.627 140.295 110.208 140.348 109.908 140.6L110.55 141.366ZM110.974 141.564L111.389 140.655L110.974 141.564ZM111.817 141.932L111.434 142.855H111.434L111.817 141.932ZM112.656 142.262L113.006 141.325H113.006L112.656 142.262ZM113.489 142.556L113.174 143.505H113.174L113.489 142.556ZM114.316 142.813L114.595 141.853L114.595 141.853L114.316 142.813ZM117.175 143.434L117.033 144.423L117.033 144.423L117.175 143.434ZM117.981 143.532L118.082 142.537H118.082L117.981 143.532ZM118.382 143.569L118.302 144.566H118.302L118.382 143.569ZM119.182 143.616L119.22 142.617H119.22L119.182 143.616ZM120.373 143.625L120.397 144.625H120.397L120.373 143.625ZM121.553 143.559L121.466 142.562L121.466 142.562L121.553 143.559ZM121.945 143.52L122.053 144.514H122.053L121.945 143.52ZM123.114 143.356L122.945 142.371H122.945L123.114 143.356ZM123.887 143.207L124.096 144.185H124.096L123.887 143.207ZM128.829 141.489L128.394 140.588L128.394 140.589L128.829 141.489ZM129.576 141.114L130.039 142H130.039L129.576 141.114ZM132.535 139.329L131.971 138.503V138.503L132.535 139.329ZM133.267 138.814L132.681 138.004L133.267 138.814ZM135.449 137.111L136.092 137.877C136.515 137.522 136.57 136.892 136.215 136.469C135.86 136.046 135.229 135.99 134.806 136.345L135.449 137.111ZM120.392 64.126L121.282 64.583L120.392 64.126ZM110.549 141.366L111.192 142.132C111.453 141.914 111.584 141.577 111.541 141.24C111.498 140.903 111.287 140.61 110.98 140.464L110.549 141.366ZM106.603 75.6963L105.96 74.9302C105.858 75.0158 105.774 75.1209 105.714 75.2393L106.603 75.6963ZM154.883 17.8496L155.719 18.3988C155.965 18.0251 155.932 17.5337 155.64 17.1955C155.347 16.8572 154.866 16.7543 154.46 16.9434L154.883 17.8496ZM106.603 75.6953L105.714 75.2383C105.496 75.6618 105.607 76.1799 105.979 76.4769C106.351 76.7738 106.881 76.7674 107.246 76.4614L106.603 75.6953ZM139.883 24.8496L139.46 23.9434C139.381 23.9804 139.307 24.0275 139.24 24.0837L139.883 24.8496ZM121.674 148.67L121.031 147.904C118.442 150.078 115.832 151.725 113.183 152.788L113.555 153.716L113.928 154.644C116.816 153.485 119.605 151.712 122.317 149.436L121.674 148.67ZM113.555 153.716L113.183 152.788C112.336 153.127 111.486 153.407 110.63 153.626L110.877 154.595L111.125 155.564C112.069 155.322 113.003 155.015 113.928 154.644L113.555 153.716ZM110.877 154.595L110.63 153.626C110.142 153.751 109.653 153.856 109.163 153.94L109.333 154.926L109.502 155.911C110.047 155.818 110.588 155.701 111.125 155.564L110.877 154.595ZM109.333 154.926L109.163 153.94C108.795 154.004 108.426 154.055 108.054 154.096L108.163 155.09L108.271 156.084C108.683 156.039 109.093 155.982 109.502 155.911L109.333 154.926ZM108.163 155.09L108.054 154.096C107.56 154.15 107.063 154.183 106.564 154.196L106.589 155.195L106.614 156.195C107.17 156.181 107.722 156.144 108.271 156.084L108.163 155.09ZM106.589 155.195L106.564 154.196C106.315 154.202 106.065 154.203 105.813 154.198L105.796 155.198L105.779 156.198C106.058 156.203 106.336 156.202 106.614 156.195L106.589 155.195ZM105.796 155.198L105.813 154.198C105.437 154.192 105.059 154.173 104.678 154.143L104.598 155.14L104.518 156.136C104.94 156.17 105.36 156.191 105.779 156.198L105.796 155.198ZM104.598 155.14L104.678 154.143C104.171 154.102 103.661 154.04 103.147 153.956L102.985 154.942L102.823 155.929C103.391 156.022 103.956 156.091 104.518 156.136L104.598 155.14ZM102.985 154.942L103.147 153.956C102.119 153.787 101.076 153.529 100.016 153.178L99.7007 154.127L99.3858 155.076C100.542 155.46 101.687 155.743 102.823 155.929L102.985 154.942ZM99.7007 154.127L100.016 153.178C99.751 153.09 99.4851 152.996 99.2175 152.896L98.8677 153.833L98.5178 154.77C98.8074 154.878 99.0967 154.98 99.3858 155.076L99.7007 154.127ZM98.8677 153.833L99.2175 152.896C98.6829 152.697 98.1438 152.473 97.6003 152.225L97.1851 153.135L96.7698 154.044C97.3551 154.312 97.9378 154.553 98.5178 154.77L98.8677 153.833ZM97.1851 153.135L97.6003 152.225C97.4657 152.164 97.3299 152.1 97.1918 152.034L96.7612 152.937L96.3306 153.839C96.4757 153.908 96.6222 153.977 96.7698 154.044L97.1851 153.135ZM96.7612 152.937L97.404 153.703L111.193 142.132L110.55 141.366L109.908 140.6L96.1184 152.17L96.7612 152.937ZM110.55 141.366L110.12 142.269C110.265 142.338 110.411 142.407 110.559 142.474L110.974 141.564L111.389 140.655C111.255 140.593 111.119 140.53 110.981 140.464L110.55 141.366ZM110.974 141.564L110.559 142.474C110.851 142.608 111.143 142.735 111.434 142.855L111.817 141.932L112.2 141.008C111.931 140.896 111.661 140.779 111.389 140.655L110.974 141.564ZM111.817 141.932L111.434 142.855C111.726 142.977 112.017 143.091 112.306 143.199L112.656 142.262L113.006 141.325C112.737 141.225 112.468 141.119 112.2 141.008L111.817 141.932ZM112.656 142.262L112.306 143.199C112.596 143.307 112.885 143.409 113.174 143.505L113.489 142.556L113.804 141.607C113.539 141.519 113.273 141.425 113.006 141.325L112.656 142.262ZM113.489 142.556L113.174 143.505C113.461 143.6 113.749 143.69 114.037 143.774L114.316 142.813L114.595 141.853C114.333 141.777 114.07 141.695 113.804 141.607L113.489 142.556ZM114.316 142.813L114.037 143.774C115.044 144.066 116.043 144.281 117.033 144.423L117.175 143.434L117.317 142.444C116.421 142.315 115.514 142.12 114.595 141.853L114.316 142.813ZM117.175 143.434L117.033 144.423C117.316 144.464 117.598 144.499 117.88 144.527L117.981 143.532L118.082 142.537C117.828 142.512 117.573 142.48 117.317 142.444L117.175 143.434ZM117.981 143.532L117.88 144.527C118.018 144.541 118.159 144.555 118.302 144.566L118.382 143.569L118.462 142.573C118.338 142.563 118.212 142.551 118.082 142.537L117.981 143.532ZM118.382 143.569L118.302 144.566C118.585 144.589 118.866 144.605 119.144 144.615L119.182 143.616L119.22 142.617C118.967 142.607 118.714 142.593 118.462 142.573L118.382 143.569ZM119.182 143.616L119.144 144.615C119.562 144.632 119.98 144.635 120.397 144.625L120.373 143.625L120.348 142.625C119.975 142.635 119.599 142.631 119.22 142.617L119.182 143.616ZM120.373 143.625L120.397 144.625C120.814 144.614 121.228 144.591 121.641 144.555L121.553 143.559L121.466 142.562C121.095 142.595 120.722 142.616 120.348 142.625L120.373 143.625ZM121.553 143.559L121.641 144.555C121.781 144.542 121.919 144.528 122.053 144.514L121.945 143.52L121.837 142.525C121.71 142.539 121.587 142.552 121.466 142.562L121.553 143.559ZM121.945 143.52L122.053 144.514C122.463 144.469 122.874 144.412 123.283 144.342L123.114 143.356L122.945 142.371C122.578 142.434 122.208 142.485 121.837 142.525L121.945 143.52ZM123.114 143.356L123.283 144.342C123.556 144.295 123.827 144.242 124.096 144.185L123.887 143.207L123.679 142.229C123.433 142.281 123.188 142.329 122.945 142.371L123.114 143.356ZM123.887 143.207L124.096 144.185C125.854 143.81 127.575 143.204 129.263 142.39L128.829 141.489L128.394 140.589C126.836 141.34 125.266 141.89 123.679 142.229L123.887 143.207ZM128.829 141.489L129.263 142.39C129.522 142.265 129.78 142.136 130.039 142L129.576 141.114L129.112 140.228C128.874 140.353 128.635 140.473 128.394 140.588L128.829 141.489ZM129.576 141.114L130.039 142C131.071 141.461 132.091 140.843 133.099 140.155L132.535 139.329L131.971 138.503C131.021 139.152 130.069 139.728 129.112 140.228L129.576 141.114ZM132.535 139.329L133.099 140.155C133.351 139.983 133.602 139.806 133.853 139.625L133.267 138.814L132.681 138.004C132.445 138.175 132.208 138.341 131.971 138.503L132.535 139.329ZM133.267 138.814L133.853 139.625C134.604 139.082 135.351 138.499 136.091 137.878L135.449 137.111L134.806 136.345C134.1 136.937 133.392 137.491 132.681 138.004L133.267 138.814ZM135.449 137.111L134.806 136.345L121.032 147.904L121.674 148.67L122.317 149.436L136.092 137.877L135.449 137.111ZM120.392 64.126L119.503 63.669C110.275 81.6289 102.239 98.426 99.3009 112.077C97.8303 118.91 97.6112 125.06 99.2386 130.219C100.881 135.424 104.375 139.528 110.119 142.269L110.549 141.366L110.98 140.464C105.706 137.947 102.611 134.262 101.146 129.617C99.666 124.926 99.8209 119.166 101.256 112.498C104.13 99.1475 112.034 82.582 121.282 64.583L120.392 64.126ZM110.549 141.366L109.907 140.6L96.1184 152.171L96.7612 152.937L97.404 153.703L111.192 142.132L110.549 141.366ZM96.7612 152.937L97.1919 152.034C91.9173 149.517 88.8227 145.832 87.3574 141.188C85.8774 136.497 86.0321 130.737 87.4673 124.068C90.3407 110.718 98.2448 94.1524 107.492 76.1533L106.603 75.6963L105.714 75.2393C96.4859 93.1993 88.4502 109.996 85.5121 123.648C84.0415 130.48 83.8226 136.631 85.4501 141.789C87.0922 146.994 90.5863 151.098 96.3306 153.839L96.7612 152.937ZM106.603 75.6963L107.246 76.4623L121.035 64.892L120.392 64.126L119.749 63.3599L105.96 74.9302L106.603 75.6963ZM154.883 17.8496L154.048 17.3004C148.344 25.9791 142.535 32.1248 136.697 38.8618C130.863 45.5945 125.058 52.8571 119.503 63.669L120.392 64.126L121.282 64.583C126.733 53.972 132.424 46.8465 138.208 40.1716C143.989 33.5012 149.922 27.2201 155.719 18.3988L154.883 17.8496ZM120.392 64.126L119.749 63.3599L105.96 74.9292L106.603 75.6953L107.246 76.4614L121.035 64.8921L120.392 64.126ZM106.603 75.6953L107.492 76.1523C112.994 65.4453 118.527 55.0914 124.062 46.2588C129.606 37.4119 135.107 30.1642 140.526 25.6155L139.883 24.8496L139.24 24.0837C133.576 28.8385 127.941 36.3023 122.367 45.1967C116.784 54.1054 111.219 64.5226 105.714 75.2383L106.603 75.6953ZM139.883 24.8496L140.306 25.7558L155.306 18.7558L154.883 17.8496L154.46 16.9434L139.46 23.9434L139.883 24.8496Z" fill="url(#paint4_linear_387_71)" mask="url(#path-18-outside-5_387_71)"/>
<path d="M164.633 95.3482C146.218 131.338 129.714 158.901 107.659 148.423C85.6036 137.945 98.9568 107.156 117.372 71.1658C135.787 35.1757 150.644 5.96336 174.346 18.0912C198.049 30.219 183.049 59.3581 164.633 95.3482Z" fill="url(#paint5_linear_387_71)"/>
<path d="M47.5146 21.0273C53.1314 18.0951 58.2701 17.7702 63.1328 19.4688C68.0187 21.1754 72.6765 24.9427 77.2695 30.293C86.4624 41.0016 95.2486 57.8682 105.015 76.5752C114.775 95.2708 123.03 112.209 126.28 125.913C127.905 132.762 128.267 138.755 126.975 143.733C125.688 148.69 122.754 152.674 117.707 155.516C112.667 158.353 107.818 158.642 103.058 156.929C98.2719 155.206 93.542 151.445 88.8066 146.112C79.3335 135.445 69.9807 118.656 60.2207 99.9609C50.4545 81.2537 41.6385 64.4018 38.1074 50.7373C36.3433 43.9103 35.9149 37.9355 37.3076 32.9512C38.6939 27.9904 41.8979 23.9596 47.5146 21.0273Z" fill="white" stroke="#85C48D" stroke-width="0.970096"/>
<mask id="path-22-inside-6_387_71" fill="white">
<path d="M53.3232 15.5352C43.0223 30.0832 56.8704 56.6096 73.4033 88.2783L73.5791 88.6143C93.0899 125.987 111.091 155.989 131.733 144.367L117.945 155.938C97.9481 167.196 80.4288 139.392 61.6152 103.666L59.79 100.185L59.6143 99.8477C40.1843 62.6297 24.4628 32.5148 47.29 20.5977L53.3232 15.5352Z"/>
</mask>
<path d="M53.3232 15.5352C43.0223 30.0832 56.8704 56.6096 73.4033 88.2783L73.5791 88.6143C93.0899 125.987 111.091 155.989 131.733 144.367L117.945 155.938C97.9481 167.196 80.4288 139.392 61.6152 103.666L59.79 100.185L59.6143 99.8477C40.1843 62.6297 24.4628 32.5148 47.29 20.5977L53.3232 15.5352Z" fill="white"/>
<path d="M53.3232 15.5352L54.1394 16.113C54.4299 15.7027 54.3706 15.1403 54.0008 14.7997C53.6309 14.459 53.0656 14.4459 52.6805 14.7691L53.3232 15.5352ZM73.4033 88.2783L72.5169 88.7411L72.5173 88.7419L73.4033 88.2783ZM73.5791 88.6143L74.4656 88.1515L74.4651 88.1506L73.5791 88.6143ZM131.733 144.367L132.376 145.133C132.772 144.801 132.85 144.223 132.556 143.798C132.262 143.373 131.693 143.242 131.243 143.496L131.733 144.367ZM117.945 155.938L118.436 156.809C118.49 156.779 118.541 156.743 118.588 156.704L117.945 155.938ZM61.6152 103.666L60.7296 104.13L60.7304 104.132L61.6152 103.666ZM59.79 100.185L58.9035 100.647L58.9044 100.649L59.79 100.185ZM59.6143 99.8477L60.5008 99.3851L60.5007 99.3849L59.6143 99.8477ZM47.29 20.5977L47.7528 21.4841C47.817 21.4506 47.8774 21.4102 47.9328 21.3637L47.29 20.5977ZM53.3232 15.5352L52.5071 14.9573C47.052 22.6616 48.1018 33.3675 52.3543 45.8099C56.6254 58.3065 64.2628 72.9305 72.5169 88.7411L73.4033 88.2783L74.2898 87.8155C66.0109 71.9574 58.4578 57.4839 54.2468 45.1631C50.0174 32.7881 49.2936 22.9568 54.1394 16.113L53.3232 15.5352ZM73.4033 88.2783L72.5173 88.7419L72.6931 89.0779L73.5791 88.6143L74.4651 88.1506L74.2894 87.8147L73.4033 88.2783ZM73.5791 88.6143L72.6926 89.077C82.4384 107.745 91.8694 124.701 101.484 135.528C106.294 140.944 111.222 144.912 116.343 146.755C121.517 148.618 126.815 148.284 132.224 145.239L131.733 144.367L131.243 143.496C126.331 146.261 121.638 146.536 117.021 144.873C112.351 143.192 107.689 139.503 102.98 134.2C93.5555 123.588 84.2306 106.857 74.4656 88.1515L73.5791 88.6143ZM131.733 144.367L131.091 143.601L117.302 155.171L117.945 155.938L118.588 156.704L132.376 145.133L131.733 144.367ZM117.945 155.938L117.455 155.066C112.694 157.747 108.142 158.085 103.669 156.595C99.1481 155.089 94.6327 151.689 90.0715 146.743C80.9423 136.844 71.9143 121.077 62.5 103.2L61.6152 103.666L60.7304 104.132C70.1297 121.981 79.2681 137.979 88.6013 148.099C93.2713 153.163 98.061 156.835 103.037 158.493C108.061 160.166 113.198 159.758 118.436 156.809L117.945 155.938ZM61.6152 103.666L62.5009 103.202L60.6757 99.7202L59.79 100.185L58.9044 100.649L60.7296 104.13L61.6152 103.666ZM59.79 100.185L60.6766 99.722L60.5008 99.3851L59.6143 99.8477L58.7277 100.31L58.9035 100.647L59.79 100.185ZM59.6143 99.8477L60.5007 99.3849C50.7639 80.734 42.0446 64.0189 38.5744 50.4865C36.8419 43.7308 36.4512 37.8845 37.8156 33.0456C39.1664 28.2549 42.2663 24.3484 47.7528 21.4841L47.29 20.5977L46.8273 19.7112C40.9001 22.8055 37.405 27.1323 35.8907 32.5029C34.3899 37.8253 34.8638 44.0683 36.637 50.9833C40.1782 64.792 49.0347 81.7434 58.7278 100.31L59.6143 99.8477ZM47.29 20.5977L47.9328 21.3637L53.966 16.3012L53.3232 15.5352L52.6805 14.7691L46.6472 19.8316L47.29 20.5977Z" fill="#85C48D" mask="url(#path-22-inside-6_387_71)"/>
<path d="M115.234 68.7807C134.744 106.154 148.376 136.746 127.734 148.368C107.092 159.99 89.0902 129.988 69.5794 92.6146C50.0686 55.2413 34.1828 24.9804 57.0791 13.0274C79.9754 1.07431 95.7229 31.4074 115.234 68.7807Z" fill="#85C48D"/>
<defs>
<linearGradient id="paint0_linear_387_71" x1="85.9917" y1="156.803" x2="100.571" y2="38.0487" gradientUnits="userSpaceOnUse">
<stop stop-color="#ECC736"/>
<stop offset="0.99623" stop-color="#B5BF66"/>
</linearGradient>
<linearGradient id="paint1_linear_387_71" x1="149.933" y1="111.802" x2="135.255" y2="5.32639" gradientUnits="userSpaceOnUse">
<stop offset="0.474822" stop-color="#EBC635"/>
<stop offset="0.884689" stop-color="#B4BE65"/>
</linearGradient>
<linearGradient id="paint2_linear_387_71" x1="96.9917" y1="156.803" x2="111.571" y2="38.0487" gradientUnits="userSpaceOnUse">
<stop stop-color="#ECC736"/>
<stop offset="0.99623" stop-color="#B5BF66"/>
</linearGradient>
<linearGradient id="paint3_linear_387_71" x1="160.933" y1="111.802" x2="146.255" y2="5.32639" gradientUnits="userSpaceOnUse">
<stop offset="0.474822" stop-color="#EBC635"/>
<stop offset="0.884689" stop-color="#B4BE65"/>
</linearGradient>
<linearGradient id="paint4_linear_387_71" x1="105.992" y1="157.803" x2="120.571" y2="39.0487" gradientUnits="userSpaceOnUse">
<stop stop-color="#ECC736"/>
<stop offset="0.99623" stop-color="#B5BF66"/>
</linearGradient>
<linearGradient id="paint5_linear_387_71" x1="169.933" y1="112.802" x2="155.255" y2="6.32639" gradientUnits="userSpaceOnUse">
<stop offset="0.474822" stop-color="#EBC635"/>
<stop offset="0.884689" stop-color="#B4BE65"/>
</linearGradient>
</defs>
</svg>
