<svg width="78" height="75" viewBox="0 0 78 75" fill="none" xmlns="http://www.w3.org/2000/svg">
<path d="M51.208 37.292C51.208 42.2815 50.704 47.4857 49.6299 51.4629C49.094 53.4469 48.4047 55.1703 47.5332 56.4121C46.6616 57.654 45.5367 58.5068 44.1367 58.5068C43.3467 58.5068 42.6725 58.2118 42.0762 57.7861L30.8203 52.8916C28.7329 57.7956 23.9138 61.078 18.4229 61.0781C10.9836 61.0781 4.923 55.0173 4.92285 47.5781C4.92285 46.5346 5.05262 45.5238 5.2832 44.5391C2.76648 43.0983 1.06543 40.3958 1.06543 37.292C1.06549 33.3247 3.84295 30.0164 7.54199 29.1592C7.73424 28.2973 8.50452 27.6494 9.42285 27.6494L14.5654 27.6494C15.0888 27.6494 15.5463 27.8607 15.8828 28.1855L42.0879 16.7988C42.6807 16.376 43.3588 16.086 44.126 16.0801C44.1296 16.08 44.1331 16.0781 44.1367 16.0781C45.5367 16.0781 46.6616 16.93 47.5332 18.1719C48.4047 19.4137 49.094 21.1371 49.6299 23.1211C50.704 27.0983 51.208 32.3025 51.208 37.292ZM7.50684 33.249C5.98776 33.9737 4.9356 35.5072 4.93555 37.292C4.93555 39.0768 5.98778 40.6102 7.50684 41.335L7.50684 33.249ZM26.1172 50.8438C24.853 53.8604 21.8912 55.9345 18.4355 55.9346C13.8249 55.9346 10.0783 52.1888 10.0781 47.5781C10.0781 47.3587 10.0915 47.144 10.1104 46.9346H9.43555C9.21896 46.9346 9.01455 46.8969 8.8252 46.8311C8.80532 47.0787 8.79297 47.3283 8.79297 47.5781C8.79312 52.893 13.1207 57.2207 18.4355 57.2207C18.4725 57.2207 18.5087 57.2245 18.5439 57.2305C22.43 57.1876 25.8297 54.8479 27.3066 51.3643L26.1172 50.8438ZM11.3643 31.5068L11.3643 43.0781H12.6494L12.6494 31.5068H11.3643ZM15.9043 46.4014C15.5681 46.7243 15.1123 46.9346 14.5908 46.9346H14.0088C13.9715 47.1547 13.9482 47.3671 13.9482 47.5781C13.9484 50.0644 15.962 52.0781 18.4482 52.0781C20.2759 52.0781 21.9007 50.9341 22.584 49.3057L15.9043 46.4014ZM38.8789 52.1846C37.6557 48.1188 37.0781 42.5796 37.0781 37.292C37.0781 32.0039 37.6554 26.4642 38.8789 22.3984L16.5068 32.1211L16.5068 42.4629L38.8789 52.1846ZM42.2207 37.2793C42.2207 35.9728 41.7851 34.7431 41.0254 33.7559C40.9682 34.8675 40.9355 36.039 40.9355 37.2793C40.9355 38.5192 40.9682 39.6904 41.0254 40.8018C41.7848 39.8146 42.2207 38.5855 42.2207 37.2793ZM47.3643 37.2793C47.3643 31.3851 46.6936 26.9433 45.8916 23.9932C45.4897 22.5149 45.0602 21.4297 44.6768 20.7295C44.4839 20.3773 44.315 20.1463 44.1855 20.0127C44.1739 20.0007 44.1623 19.9909 44.1523 19.9814C44.0875 20.0435 44.0001 20.1395 43.8984 20.2861C43.6439 20.6533 43.3436 21.2386 43.0332 22.0586C42.4411 23.6228 41.8446 25.9604 41.4375 29.0576C44.2834 30.788 46.0781 33.8742 46.0781 37.2793C46.0781 40.6842 44.2831 43.7696 41.4375 45.5C41.8446 48.6037 42.4411 50.9412 43.0332 52.5039C43.3437 53.3232 43.6431 53.9073 43.8975 54.2734C43.9991 54.4197 44.0875 54.5144 44.1523 54.5762C44.1622 54.5668 44.1741 54.5577 44.1855 54.5459C44.315 54.4123 44.4839 54.1813 44.6768 53.8291C45.0602 53.1288 45.4897 52.0437 45.8916 50.5654C46.6936 47.6153 47.3643 43.1735 47.3643 37.2793Z" fill="#3EBBC4" stroke="#3EBBC4" stroke-width="1.28571" stroke-linejoin="round"/>
<path d="M76.9346 72.0068C76.9343 73.0688 76.0679 73.9346 75.0059 73.9346H62.1494C61.0874 73.9346 60.2209 73.0688 60.2207 72.0068L60.2207 63.9316L54.5215 59.3682L54.5225 59.3672C54.0379 58.9923 53.792 58.4297 53.792 57.8633C53.792 57.6447 53.8325 57.4317 53.9062 57.2266H53.9053C54.175 56.4564 54.9058 55.9346 55.7207 55.9346L60.2207 55.9346V54.0068C60.2207 52.9447 61.0872 52.0781 62.1494 52.0781L75.0059 52.0781C76.068 52.0781 76.9346 52.9447 76.9346 54.0068L76.9346 72.0068ZM64.0781 55.9346V57.8633C64.0781 58.9254 63.2115 59.7918 62.1494 59.792H61.2158L63.3486 61.502C63.8079 61.8672 64.0781 62.4243 64.0781 63.0068L64.0781 70.0781H73.0781L73.0781 55.9346L64.0781 55.9346Z" fill="#3EBBC4" stroke="#3EBBC4" stroke-width="1.28571" stroke-linejoin="round"/>
<path d="M76.9346 20.5781C76.9343 21.6401 76.0679 22.5059 75.0059 22.5059L62.1494 22.5059C61.0874 22.5059 60.2209 21.6401 60.2207 20.5781V18.6494L55.7207 18.6494C54.9058 18.6494 54.175 18.1277 53.9053 17.3574L53.9063 17.3564C53.8327 17.1515 53.792 16.939 53.792 16.7207C53.792 16.1378 54.0626 15.581 54.5225 15.2158L60.2207 10.6523L60.2207 2.57813C60.2207 1.51594 61.0872 0.649414 62.1494 0.649414L75.0059 0.649414C76.068 0.649414 76.9346 1.51594 76.9346 2.57812L76.9346 20.5781ZM64.0781 4.50586V11.5781C64.078 12.1618 63.8068 12.7199 63.3457 13.085V13.084L61.2158 14.792H62.1494C63.2115 14.7921 64.0781 15.6586 64.0781 16.7207V18.6494L73.0781 18.6494L73.0781 4.50586L64.0781 4.50586Z" fill="#3EBBC4" stroke="#3EBBC4" stroke-width="1.28571" stroke-linejoin="round"/>
<path d="M76.9346 46.292C76.9343 47.354 76.0679 48.2197 75.0059 48.2197L62.1494 48.2197C61.0874 48.2197 60.2209 47.354 60.2207 46.292L60.2207 41.1729L55.0059 39.084C54.2713 38.7926 53.7922 38.0794 53.792 37.292C53.792 36.5044 54.2712 35.7904 55.0059 35.499L60.2207 33.4102V28.292C60.2207 27.2298 61.0872 26.3633 62.1494 26.3633L75.0059 26.3633C76.068 26.3633 76.9346 27.2298 76.9346 28.292L76.9346 46.292ZM64.0781 30.2197V34.7197C64.0781 35.5075 63.5982 36.2214 62.8633 36.5127L60.9141 37.291L62.8633 38.0703C63.5983 38.3616 64.0781 39.0755 64.0781 39.8633L64.0781 44.3633L73.0781 44.3633L73.0781 30.2197L64.0781 30.2197Z" fill="#3EBBC4" stroke="#3EBBC4" stroke-width="1.28571" stroke-linejoin="round"/>
</svg>
