<svg width="347" height="314" viewBox="0 0 347 314" fill="none" xmlns="http://www.w3.org/2000/svg">
<path d="M104.144 264.27H17.5047C16.118 264.27 14.7956 263.708 13.845 262.71C12.9015 261.712 12.4154 260.376 12.5083 259.012L16.5397 201.121C16.6755 199.203 17.9336 197.53 19.7634 196.855C21.5933 196.173 23.6591 196.609 25.0529 197.965C34.6239 207.307 47.3258 212.445 60.821 212.445C74.3091 212.445 87.0109 207.307 96.5891 197.973C98.5548 196.061 101.721 196.075 103.666 198.001C105.61 199.934 105.595 203.047 103.637 204.959C92.1717 216.135 76.9681 222.286 60.8282 222.286C48.1335 222.286 36.0249 218.483 25.8606 211.426L22.8656 254.429H98.7621L96.5319 224.753C96.3247 222.04 98.3975 219.685 101.149 219.481C103.887 219.284 106.303 221.316 106.51 224.022L109.141 258.977C109.241 260.341 108.762 261.683 107.818 262.689C106.861 263.701 105.538 264.27 104.144 264.27Z" fill="#1B3954"/>
<path d="M60.8213 193.214C43.5877 193.214 29.5635 179.423 29.5635 162.476C29.5635 150.717 36.2182 140.166 46.94 134.937C51.2717 132.821 55.9392 131.746 60.8213 131.746C78.0549 131.746 92.0791 145.536 92.0791 162.483C92.0791 167.277 90.9926 171.874 88.8411 176.134C83.5087 186.67 72.7726 193.214 60.8213 193.214ZM60.8213 141.586C57.5046 141.586 54.331 142.317 51.3932 143.751C44.0952 147.308 39.5705 154.484 39.5705 162.476C39.5705 173.997 49.0987 183.374 60.8213 183.374C68.9484 183.374 76.2464 178.924 79.8776 171.755C81.3358 168.866 82.072 165.745 82.072 162.476C82.072 150.956 72.5367 141.586 60.8213 141.586Z" fill="#1B3954"/>
<path d="M60.8215 222.285C44.6744 222.285 29.4637 216.128 18.0056 204.952C6.39023 193.642 0 178.558 0 162.476C0 129.495 27.2836 102.659 60.8215 102.659C67.6835 102.659 74.4311 103.776 80.8714 105.99C98.2194 111.937 112.193 125.686 118.262 142.759C120.507 149.092 121.65 155.728 121.65 162.476C121.65 178.558 115.253 193.649 103.63 204.959C92.1722 216.135 76.9686 222.285 60.8215 222.285ZM60.8215 112.499C32.8017 112.499 10.0071 134.922 10.0071 162.476C10.0071 175.908 15.3537 188.511 25.0534 197.958C34.6245 207.299 47.3263 212.445 60.8215 212.445C74.3096 212.445 87.0114 207.307 96.5896 197.972C106.296 188.518 111.643 175.915 111.643 162.476C111.643 156.831 110.692 151.285 108.813 146C103.745 131.738 92.0722 120.252 77.5762 115.283C72.201 113.434 66.5613 112.499 60.8215 112.499Z" fill="#1B3954"/>
<path d="M60.8213 193.214C43.5877 193.214 29.5635 179.423 29.5635 162.476C29.5635 150.717 36.2182 140.166 46.94 134.937C51.2717 132.821 55.9392 131.746 60.8213 131.746C78.0549 131.746 92.0791 145.536 92.0791 162.483C92.0791 167.277 90.9926 171.874 88.8411 176.134C83.5087 186.67 72.7726 193.214 60.8213 193.214ZM60.8213 141.586C57.5046 141.586 54.331 142.317 51.3932 143.751C44.0952 147.308 39.5705 154.484 39.5705 162.476C39.5705 173.997 49.0987 183.374 60.8213 183.374C68.9484 183.374 76.2464 178.924 79.8776 171.755C81.3358 168.866 82.072 165.745 82.072 162.476C82.072 150.956 72.5367 141.586 60.8213 141.586Z" fill="#16ADE1"/>
<path d="M113.546 149.296C113.217 149.296 112.881 149.261 112.546 149.197C110.816 148.853 109.4 147.637 108.821 145.999C103.754 131.737 92.0811 120.252 77.5851 115.282C75.9197 114.713 74.6831 113.321 74.3328 111.62C73.9826 109.919 74.5616 108.162 75.8696 106.995L129.515 59.0153C131.559 57.1878 134.725 57.3354 136.584 59.3457C138.442 61.356 138.292 64.4698 136.248 66.2973L88.357 109.132C99.7937 114.875 109.236 124.16 115.083 135.414L169.729 76.3348C157.563 71.4004 148.492 60.8569 145.726 47.79C145.161 45.126 146.898 42.5253 149.607 41.97C152.309 41.4147 154.961 43.1227 155.526 45.7867C158.006 57.5181 167.72 66.8526 179.693 69.0176C181.48 69.3409 182.945 70.5921 183.531 72.2861C184.118 73.98 183.717 75.8498 182.495 77.1712L117.263 147.693C116.284 148.726 114.94 149.296 113.546 149.296Z" fill="#1B3954"/>
<path d="M174.279 56.4359C173.114 56.4359 171.942 56.0353 170.998 55.2269L170.319 54.6506C169.276 53.7579 168.654 52.4786 168.604 51.122C168.554 49.7654 169.076 48.444 170.048 47.481C170.984 46.5531 172.271 46.0119 173.607 46.0049C173.615 46.0049 173.615 46.0049 173.622 46.0049C174.944 46.0049 176.231 46.5039 177.174 47.4247C177.289 47.5372 177.403 47.6426 177.517 47.7481L177.753 47.973C179.712 49.8216 179.805 52.8722 177.975 54.8403C176.981 55.9017 175.637 56.4359 174.279 56.4359Z" fill="#1B3954"/>
<path d="M185.223 79.3504C182.735 79.3504 180.255 79.1255 177.861 78.6897C161.692 75.7656 149.069 63.6336 145.716 47.7902C145.159 45.1332 144.873 42.406 144.873 39.6717C144.873 17.7974 162.972 0 185.223 0C187.989 0 190.226 2.20008 190.226 4.9203C190.226 7.64053 187.989 9.84061 185.223 9.84061C168.49 9.84061 154.88 23.2238 154.88 39.6717C154.88 41.7312 155.095 43.7907 155.516 45.7869C157.997 57.5113 167.711 66.8458 179.683 69.0108C181.485 69.3411 183.35 69.5098 185.223 69.5098C189.047 69.5098 192.764 68.821 196.281 67.4644C203.657 64.6247 209.733 58.9171 212.95 51.7897C214.687 47.9589 215.566 43.8821 215.566 39.6647C215.566 32.8114 213.143 26.1198 208.747 20.8199C207.003 18.7182 207.317 15.6184 209.462 13.8963C211.599 12.1813 214.751 12.4905 216.502 14.5992C222.356 21.6493 225.58 30.5551 225.58 39.6647C225.58 45.2738 224.408 50.6932 222.099 55.7892C217.825 65.2573 209.747 72.8486 199.94 76.6232C195.251 78.4367 190.298 79.3504 185.223 79.3504Z" fill="#1B3954"/>
<path d="M200.915 13.4461C198.148 13.4461 195.911 11.246 195.911 8.52577C195.911 5.80555 198.148 3.60547 200.915 3.60547H200.922C203.688 3.60547 205.925 5.80555 205.925 8.52577C205.925 11.246 203.681 13.4461 200.915 13.4461Z" fill="#1B3954"/>
<path d="M185.222 60.5895C179.947 60.5895 174.879 58.6776 170.962 55.1982L170.319 54.65C170.026 54.4039 169.769 54.1228 169.547 53.8205C165.93 49.9476 163.95 44.9499 163.95 39.6782C163.95 34.0972 166.159 28.8465 170.176 24.8962C170.24 24.8329 170.305 24.7697 170.376 24.7134C174.379 20.8826 179.64 18.7739 185.222 18.7739C194.636 18.7739 202.813 24.7205 205.565 33.57C206.18 35.5381 206.495 37.5976 206.495 39.6852C206.495 45.2662 204.286 50.5169 200.269 54.4742C196.23 58.4175 190.891 60.5895 185.222 60.5895ZM177.395 47.6631L177.567 47.8107C177.596 47.8318 177.617 47.8529 177.638 47.874C179.718 49.7297 182.413 50.7489 185.215 50.7489C188.217 50.7489 191.048 49.5961 193.185 47.5015C195.301 45.4139 196.473 42.6304 196.473 39.6712C196.473 38.5606 196.309 37.4781 195.987 36.4378C194.529 31.7495 190.197 28.6005 185.215 28.6005C182.213 28.6005 179.39 29.7532 177.252 31.8479C177.21 31.89 177.16 31.9322 177.117 31.9744C175.072 34.048 173.957 36.7752 173.957 39.6641C173.957 42.5882 175.108 45.3576 177.202 47.4452C177.267 47.5226 177.331 47.5928 177.395 47.6631Z" fill="#1B3954"/>
<path d="M185.222 60.5901C179.926 60.5901 174.851 58.6642 170.919 55.1638C170.884 55.1286 170.848 55.1005 170.812 55.0654L170.619 54.8826C170.448 54.7209 170.276 54.5593 170.105 54.3906C166.123 50.4122 163.95 45.1966 163.95 39.6718C163.95 34.0908 166.159 28.8401 170.176 24.8898C170.24 24.8266 170.305 24.7633 170.376 24.7071C174.379 20.8763 179.64 18.7676 185.222 18.7676C194.636 18.7676 202.813 24.7141 205.565 33.5636C206.18 35.5318 206.495 37.5912 206.495 39.6789C206.495 45.2599 204.286 50.5106 200.269 54.4679C196.23 58.4182 190.891 60.5901 185.222 60.5901ZM177.681 47.9098C179.754 49.7374 182.428 50.7495 185.215 50.7495C188.217 50.7495 191.048 49.5968 193.185 47.5021C195.301 45.4145 196.473 42.631 196.473 39.6718C196.473 38.5613 196.309 37.4788 195.987 36.4385C194.529 31.7502 190.197 28.6012 185.215 28.6012C182.213 28.6012 179.39 29.7539 177.252 31.8486C177.21 31.8907 177.16 31.9329 177.117 31.9751C175.072 34.0486 173.957 36.7759 173.957 39.6648C173.957 42.5889 175.108 45.3583 177.202 47.4459C177.288 47.5232 177.395 47.6287 177.51 47.7411L177.681 47.9098Z" fill="#16ADE1"/>
<path d="M250.171 121.827C248.97 121.827 247.797 121.405 246.875 120.611L194.81 75.7518C193.495 74.6201 192.88 72.898 193.18 71.204C193.481 69.51 194.66 68.0972 196.29 67.4716C203.666 64.6319 209.735 58.9243 212.951 51.8039C213.645 50.2716 215.081 49.1892 216.776 48.9361C218.462 48.6831 220.164 49.2946 221.293 50.5598L266.353 101.133C267.433 102.35 267.84 104.008 267.44 105.576C267.04 107.143 265.882 108.416 264.345 108.985C259.906 110.623 256.461 114.102 254.902 118.53C254.359 120.077 253.065 121.258 251.457 121.679C251.028 121.771 250.599 121.827 250.171 121.827ZM206.933 73.1088L248.662 109.062C250.314 106.715 252.358 104.669 254.709 102.989L218.398 62.242C215.346 66.5578 211.436 70.2691 206.933 73.1088Z" fill="#1B3954"/>
<path d="M235.497 188.686H214.825C212.059 188.686 209.821 186.486 209.821 183.766V141.775C209.821 139.968 210.829 138.302 212.445 137.445L246.647 119.268C248.198 118.445 250.078 118.481 251.586 119.373C253.102 120.259 254.031 121.869 254.031 123.598C254.031 129.193 256.926 134.218 261.779 137.079C263.323 137.986 264.245 139.645 264.21 141.409C264.167 143.173 263.166 144.79 261.586 145.627L240.5 156.831V183.759C240.5 186.479 238.263 188.686 235.497 188.686ZM219.828 178.846H230.493V153.9C230.493 152.093 231.501 150.427 233.116 149.57L250.414 140.376C248.063 137.712 246.29 134.584 245.211 131.217L219.828 144.706V178.846Z" fill="#1B3954"/>
<path d="M325.116 188.687H304.444C301.678 188.687 299.441 186.487 299.441 183.767V156.839L278.369 145.641C276.789 144.805 275.788 143.195 275.746 141.424C275.703 139.66 276.632 138.008 278.169 137.094C283.015 134.226 285.91 129.194 285.91 123.641C285.91 121.905 286.839 120.281 288.354 119.395C289.87 118.509 291.743 118.446 293.294 119.276L327.496 137.453C329.112 138.31 330.12 139.976 330.12 141.783V183.774C330.12 186.48 327.882 188.687 325.116 188.687ZM309.455 178.846H320.12V144.714L294.738 131.225C293.665 134.599 291.886 137.72 289.541 140.391L306.832 149.578C308.447 150.435 309.455 152.101 309.455 153.908V178.846Z" fill="#1B3954"/>
<path d="M269.978 149.149C265.268 149.149 260.65 147.891 256.626 145.515C248.856 140.932 244.024 132.546 244.024 123.64C244.032 120.773 244.51 117.989 245.44 115.318C247.984 108.099 253.588 102.434 260.829 99.763C263.731 98.6735 266.819 98.1182 269.978 98.1182C284.253 98.1182 295.89 109.547 295.925 123.591V123.598V123.64C295.925 132.546 291.101 140.932 283.331 145.522C279.292 147.898 274.682 149.149 269.978 149.149ZM269.978 107.959C268.041 107.959 266.147 108.296 264.367 108.964C259.907 110.609 256.462 114.088 254.904 118.516C254.339 120.154 254.039 121.876 254.031 123.612C254.031 129.193 256.926 134.212 261.78 137.073C264.253 138.535 267.084 139.301 269.978 139.301C272.873 139.301 275.704 138.535 278.184 137.073C283.023 134.212 285.918 129.179 285.918 123.626L290.922 123.584L285.918 123.591C285.897 114.981 278.749 107.959 269.978 107.959Z" fill="#16ADE1"/>
<path d="M304.45 235.992H235.502C232.735 235.992 230.498 233.792 230.498 231.072V169.941C230.498 167.221 232.735 165.021 235.502 165.021H304.45C307.216 165.021 309.454 167.221 309.454 169.941V231.072C309.454 233.792 307.209 235.992 304.45 235.992ZM240.498 226.152H299.44V174.861H240.498V226.152Z" fill="#16ADE1"/>
<path d="M198.318 266.899C197.989 266.899 197.66 266.864 197.339 266.801C197.024 266.738 196.71 266.639 196.402 266.52C196.102 266.393 195.816 266.246 195.545 266.07C195.266 265.887 195.016 265.683 194.78 265.459C193.851 264.538 193.314 263.273 193.314 261.979C193.314 261.656 193.35 261.333 193.415 261.016C193.479 260.7 193.572 260.391 193.7 260.095C193.822 259.8 193.979 259.512 194.158 259.245C194.344 258.978 194.551 258.725 194.78 258.5C195.016 258.268 195.266 258.064 195.545 257.888C195.816 257.706 196.102 257.558 196.402 257.431C196.71 257.312 197.024 257.214 197.339 257.15C198.968 256.834 200.698 257.354 201.856 258.5C202.092 258.725 202.299 258.978 202.478 259.245C202.664 259.512 202.814 259.8 202.943 260.095C203.064 260.391 203.164 260.7 203.229 261.016C203.293 261.333 203.322 261.656 203.322 261.979C203.322 263.273 202.793 264.538 201.856 265.459C200.927 266.372 199.633 266.899 198.318 266.899Z" fill="#1B3954"/>
<path d="M341.626 314H198.318C195.552 314 193.314 311.8 193.314 309.08V276.62C193.314 273.9 195.552 271.7 198.318 271.7C201.084 271.7 203.322 273.9 203.322 276.62V304.16H336.616V235.999H203.322V247.337C203.322 250.057 201.084 252.257 198.318 252.257C195.552 252.257 193.314 250.057 193.314 247.337V231.079C193.314 228.359 195.552 226.159 198.318 226.159H341.619C344.385 226.159 346.623 228.359 346.623 231.079V309.08C346.63 311.793 344.385 314 341.626 314Z" fill="#1B3954"/>
<path d="M116.647 314H5.00353C2.23729 314 0 311.8 0 309.08V259.35C0 256.629 2.23729 254.429 5.00353 254.429H116.647C119.413 254.429 121.65 256.629 121.65 259.35V309.08C121.65 311.793 119.413 314 116.647 314ZM10.0071 304.159H111.643V264.27H10.0071V304.159Z" fill="#1B3954"/>
</svg>
