<svg width="71" height="70" viewBox="0 0 71 70" fill="none" xmlns="http://www.w3.org/2000/svg">
<g clip-path="url(#clip0_342_255)">
<path d="M35.496 1.09375H31.3535C29.2768 1.09375 27.5933 2.77727 27.5933 4.85399C27.5933 6.5167 26.4903 7.95606 24.946 8.57246C24.747 8.65193 24.5488 8.73366 24.3514 8.81778C22.8146 9.47287 21.0007 9.2443 19.8214 8.06099C18.366 6.60059 16.001 6.60059 14.5456 8.06099L8.64833 13.9784C7.19015 15.4415 7.19015 17.8085 8.64833 19.2716C9.82935 20.4567 10.0576 22.2718 9.40497 23.8124C9.31857 24.0163 9.2347 24.2212 9.15322 24.427C8.54283 25.9688 7.10768 27.0703 5.44942 27.0703C3.38148 27.0703 1.70508 28.7467 1.70508 30.8147V39.1853C1.70508 41.2533 3.38148 42.9297 5.44942 42.9297C7.10768 42.9297 8.54283 44.0312 9.15322 45.573C9.2347 45.7788 9.31857 45.9837 9.40497 46.1876C10.0576 47.7282 9.82935 49.5433 8.64833 50.7284C7.19015 52.1915 7.19015 54.5585 8.64833 56.0216L14.5456 61.939C16.001 63.3994 18.366 63.3994 19.8214 61.939C21.0007 60.7557 22.8146 60.5271 24.3514 61.1822C24.5488 61.2663 24.747 61.3481 24.946 61.4275C26.4903 62.0439 27.5933 63.4833 27.5933 65.146C27.5933 67.2227 29.2768 68.9062 31.3535 68.9062H35.496C54.1355 68.9062 69.2869 53.7031 69.2869 35C69.2869 16.2969 54.1355 1.09375 35.496 1.09375ZM35.496 66.7188H33.2076C31.3109 66.7188 29.7733 65.1812 29.7733 63.2845V61.4947C29.7733 60.9956 29.438 60.5587 28.9558 60.4297C26.6123 59.8281 24.3232 58.8984 22.1976 57.6406C21.7826 57.3843 21.2457 57.4474 20.9013 57.7929L19.5927 59.106C18.2648 60.4384 16.1059 60.4348 14.7824 59.0979L11.511 55.7932C10.1864 54.455 10.19 52.2986 11.5192 50.9649L12.8342 49.6454C13.1796 49.2988 13.2427 48.7608 12.9869 48.3438C11.7334 46.2109 10.8068 43.9141 10.2073 41.5625C10.0788 41.0789 9.64095 40.7422 9.14052 40.7422H7.33586C5.43008 40.7422 3.88514 39.1972 3.88514 37.2915V32.6777C3.88514 30.789 5.41629 29.2578 7.30505 29.2578H9.08602C9.58645 29.2578 10.0243 28.9211 10.1528 28.4375C10.7523 26.0859 11.6789 23.7891 12.9324 21.6562C13.1882 21.2392 13.1251 20.7012 12.7797 20.3546L11.4682 19.0387C10.1384 17.7043 10.1384 15.5457 11.4682 14.2113L14.7233 10.9451C16.0506 9.61331 18.2074 9.61331 19.5347 10.9451L20.8468 12.2617C21.1912 12.6073 21.7281 12.6704 22.1431 12.4141C24.2687 11.1562 26.5578 10.2266 28.9013 9.625C29.3835 9.49598 29.7188 9.05911 29.7188 8.55997V6.74639C29.7188 4.83265 31.2702 3.28125 33.184 3.28125H35.496C52.9365 3.28125 67.1069 17.5 67.1069 35C67.1069 52.5 52.9365 66.7188 35.496 66.7188Z" fill="#3EBBC4" stroke="#3EBBC4" stroke-width="3"/>
<path d="M51.3039 19.1432C50.8815 18.7194 50.1951 18.7194 49.7727 19.1432L37.0492 31.9102C36.1922 32.7701 34.7996 32.7701 33.9426 31.9102L33.1549 31.1198C32.7325 30.6959 32.0461 30.6959 31.6237 31.1198C31.2033 31.5416 31.2033 32.224 31.6237 32.6458L32.4166 33.4414C33.2753 34.3031 33.2753 35.6969 32.4166 36.5586L31.6237 37.3542C31.2033 37.776 31.2033 38.4584 31.6237 38.8802C32.0461 39.3041 32.7325 39.3041 33.1549 38.8802L33.9426 38.0898C34.7996 37.2299 36.1922 37.2299 37.0492 38.0898L43.9955 45.0599C44.418 45.4838 45.1044 45.4838 45.5268 45.0599C45.9472 44.6381 45.9472 43.9557 45.5268 43.5339L41.6546 39.6484C39.0935 37.0786 39.0935 32.9214 41.6546 30.3516L51.3039 20.6693C51.7243 20.2474 51.7243 19.5651 51.3039 19.1432Z" fill="#3EBBC4" stroke="#3EBBC4" stroke-width="3"/>
<path d="M35.4961 51.4062C35.4961 50.8022 35.0048 50.3166 34.4023 50.2733C26.5144 49.7058 20.2357 43.0529 20.2357 35C20.2357 26.9471 26.5144 20.2942 34.4023 19.7267C35.0048 19.6834 35.4961 19.1978 35.4961 18.5938C35.4961 17.9897 35.0051 17.4964 34.4022 17.5343C25.3143 18.1057 18.0557 25.7436 18.0557 35C18.0557 44.2564 25.3143 51.8943 34.4022 52.4657C35.0051 52.5036 35.4961 52.0103 35.4961 51.4062Z" fill="#3EBBC4" stroke="#3EBBC4" stroke-width="3"/>
<path d="M35.684 12.1953H35.3086C34.8102 12.1953 34.4062 12.5993 34.4062 13.0977C34.4062 13.596 34.8102 14 35.3086 14H35.684C36.1823 14 36.5863 13.596 36.5863 13.0977C36.5863 12.5993 36.1823 12.1953 35.684 12.1953Z" fill="#3EBBC4" stroke="#3EBBC4" stroke-width="3"/>
<path d="M58.1687 35.1945V34.8055C58.1687 34.3089 57.766 33.9062 57.2694 33.9062C56.7727 33.9062 56.3701 34.3089 56.3701 34.8055V35.1945C56.3701 35.6911 56.7727 36.0938 57.2694 36.0938C57.766 36.0938 58.1687 35.6911 58.1687 35.1945Z" fill="#3EBBC4" stroke="#3EBBC4" stroke-width="3"/>
<path d="M35.684 55.9453H35.3086C34.8102 55.9453 34.4062 56.3493 34.4062 56.8477C34.4062 57.346 34.8102 57.75 35.3086 57.75H35.684C36.1823 57.75 36.5863 57.346 36.5863 56.8477C36.5863 56.3493 36.1823 55.9453 35.684 55.9453Z" fill="#3EBBC4" stroke="#3EBBC4" stroke-width="3"/>
</g>
<defs>
<clipPath id="clip0_342_255">
<rect width="69.7619" height="70" fill="white" transform="translate(0.615234)"/>
</clipPath>
</defs>
</svg>
