<svg width="74" height="86" viewBox="0 0 74 86" fill="none" xmlns="http://www.w3.org/2000/svg">
<path d="M69.4251 41.1408C72.7441 37.8555 74.4565 33.1481 73.8946 28.413C73.0206 21.0598 67.0308 15.3855 59.6524 14.9208C58.7162 14.8626 57.9045 15.5749 57.8454 16.514C57.7863 17.4529 58.4995 18.2618 59.4386 18.3209C65.175 18.682 69.8322 23.0955 70.5119 28.8149C71.0304 33.183 69.0594 37.5208 65.4663 40.0189C62.4924 39.9108 59.7963 41.3051 58.1408 43.58C55.4663 39.9067 51.0239 40.0142 51.0061 40.0096C48.1504 40.0096 45.6205 41.3798 44.0442 43.5108C41.2553 39.7551 36.9664 40.0229 36.9132 40.0096C34.0499 40.0096 31.5309 41.3919 29.9591 43.511C27.3275 39.9534 22.8824 40.0138 22.8649 40.0096C19.962 40.0096 17.4272 41.4302 15.863 43.5809C12.9296 39.5493 7.26678 38.846 3.45362 41.9056C3.0276 38.2365 5.54808 34.9361 9.20061 34.3866C10.131 34.2467 10.7716 33.379 10.6316 32.4488C10.4918 31.5184 9.62424 30.8771 8.69386 31.0178C3.29793 31.8293 -0.585583 36.7824 0.0727694 42.3304C0.195753 43.3625 0.470506 44.3547 0.888512 45.2919C0.235611 46.827 0.0143437 48.5739 0.372222 50.3632L6.13046 79.154C6.92372 83.1212 10.4361 86.0005 14.4819 86.0005C20.1226 86.0005 54.0847 86.0005 59.5217 86.0005C63.5674 86.0005 67.0797 83.1212 67.873 79.154L73.6312 50.3632C74.3935 46.5503 72.5346 42.916 69.4251 41.1408ZM33.128 45.0291C36.3676 41.6567 42.5352 43.8655 42.3346 48.8758L40.9858 82.5941H33.017C32.9762 81.5779 31.8135 52.5089 31.6681 48.8715C31.6115 47.4322 32.1298 46.0678 33.128 45.0291ZM9.47043 78.4861L3.71219 49.6953C3.06337 46.4505 5.54365 43.4166 8.8596 43.4166C11.5145 43.4166 13.7551 45.4045 14.0716 48.0404C14.2235 49.3059 17.8544 79.5647 18.2181 82.5941H14.4816C12.0539 82.5941 9.94652 80.8664 9.47043 78.4861ZM21.6492 82.5941C21.4237 80.715 17.8846 51.2222 17.6526 49.29C17.2775 46.1567 19.7298 43.4166 22.8644 43.4166C22.8814 43.4238 28.0414 43.4533 28.2416 48.4561C28.2802 49.428 29.3695 76.657 29.6071 82.5941H21.6492ZM45.7609 48.4561C45.8738 45.6302 48.1776 43.4166 51.0059 43.4166C51.0229 43.4248 57.02 43.6936 56.35 49.29C56.1182 51.2223 52.579 80.7152 52.3534 82.5941H44.3953L45.7609 48.4561ZM70.2902 49.6953L64.532 78.4861C64.0559 80.8664 61.9487 82.594 59.5212 82.594H55.7847C55.9489 81.2253 59.7682 49.3977 59.9312 48.0403C60.2475 45.4043 62.4881 43.4165 65.143 43.4165C68.4525 43.4166 70.9404 46.4439 70.2902 49.6953Z" fill="#283954"/>
<path d="M57.9048 9.46786C57.4188 3.59584 52.1819 -0.611312 46.4155 0.0729318C45.5887 0.171216 44.954 0.852905 44.9149 1.68466C44.7764 4.63728 42.5453 7.03341 39.6101 7.38226C39.5615 7.38771 40.4893 7.24616 23.1882 9.90801C18.7678 10.5883 14.964 13.583 13.2615 17.7234C12.7444 18.9812 12.7541 20.2674 13.1441 21.402C10.1007 22.8672 8.18342 26.1437 8.60211 29.685C9.12998 34.1241 13.1567 37.3338 17.6334 36.7981L54.6389 32.4019C66.6236 30.9787 69.2872 14.2978 57.9048 9.46786ZM16.4122 19.0188C17.6824 15.9296 20.4092 13.7825 23.7062 13.2751L40.042 10.7614C44.0872 10.2678 47.2725 7.2896 48.1112 3.42363C51.3529 3.6483 54.0897 6.15413 54.4868 9.49682C54.937 13.2861 52.2348 16.7166 48.446 17.1664C48.4114 17.1705 48.6398 17.1376 18.4183 21.5562C16.998 21.7633 15.8651 20.3492 16.4122 19.0188ZM54.2369 29.0188L17.2297 33.4154C14.6143 33.7269 12.2899 31.8503 11.9848 29.2838C11.7075 26.9375 13.1567 24.8174 15.3583 24.1896C16.3582 24.8162 17.586 25.1208 18.9111 24.9271L48.872 20.5467C53.1454 20.0293 56.4688 16.9799 57.5593 13.0994C64.6944 17.2833 62.288 28.0627 54.2369 29.0188Z" fill="#5596FB"/>
</svg>
