<svg width="72" height="72" viewBox="0 0 72 72" fill="none" xmlns="http://www.w3.org/2000/svg">
<path d="M23.1319 18.3114C23.1319 21.0729 20.8934 23.3114 18.1319 23.3114H6C3.23857 23.3114 1 21.0729 1 18.3114V5.99999C1 3.23857 3.23858 1 6 1H18.1319C20.8934 1 23.1319 3.23858 23.1319 6V18.3114ZM3.25261 16.0405C3.25261 18.802 5.49119 21.0406 8.25261 21.0406H15.8793C18.6407 21.0406 20.8793 18.802 20.8793 16.0406V8.27089C20.8793 5.50946 18.6407 3.27088 15.8793 3.27088H8.25261C5.49119 3.27088 3.25261 5.50946 3.25261 8.27088V16.0405Z" fill="#3EBBC4" stroke="#3EBBC4" stroke-width="2" stroke-linejoin="round"/>
<path d="M23.1319 42.1562C23.1319 44.9176 20.8934 47.1562 18.1319 47.1562H6C3.23857 47.1562 1 44.9176 1 42.1562V29.8447C1 27.0833 3.23858 24.8447 6 24.8447H18.1319C20.8934 24.8447 23.1319 27.0833 23.1319 29.8447V42.1562ZM3.25261 39.8853C3.25261 42.6467 5.49119 44.8853 8.25261 44.8853H15.8793C18.6407 44.8853 20.8793 42.6467 20.8793 39.8853V32.1156C20.8793 29.3542 18.6407 27.1156 15.8793 27.1156H8.25261C5.49119 27.1156 3.25261 29.3542 3.25261 32.1156V39.8853Z" fill="#3EBBC4" stroke="#3EBBC4" stroke-width="2" stroke-linejoin="round"/>
<path d="M23.1319 65.9999C23.1319 68.7613 20.8934 70.9999 18.1319 70.9999H6C3.23857 70.9999 1 68.7613 1 65.9999V53.6885C1 50.927 3.23858 48.6885 6 48.6885H18.1319C20.8934 48.6885 23.1319 50.9271 23.1319 53.6885V65.9999ZM3.25261 63.729C3.25261 66.4904 5.49119 68.729 8.25261 68.729H15.8793C18.6407 68.729 20.8793 66.4905 20.8793 63.729V55.9594C20.8793 53.1979 18.6407 50.9594 15.8793 50.9594H8.25261C5.49119 50.9594 3.25261 53.1979 3.25261 55.9594V63.729Z" fill="#3EBBC4" stroke="#3EBBC4" stroke-width="2" stroke-linejoin="round"/>
<path d="M46.7843 18.3114C46.7843 21.0729 44.5457 23.3114 41.7843 23.3114H29.6523C26.8909 23.3114 24.6523 21.0729 24.6523 18.3114V5.99999C24.6523 3.23857 26.8909 1 29.6523 1H41.7843C44.5457 1 46.7843 3.23858 46.7843 6V18.3114ZM26.905 16.0405C26.905 18.802 29.1435 21.0406 31.905 21.0406H39.5317C42.2931 21.0406 44.5317 18.802 44.5317 16.0406V8.27089C44.5317 5.50946 42.2931 3.27088 39.5317 3.27088H31.905C29.1435 3.27088 26.905 5.50946 26.905 8.27088V16.0405Z" fill="#3EBBC4" stroke="#3EBBC4" stroke-width="2" stroke-linejoin="round"/>
<path d="M46.7843 42.1562C46.7843 44.9176 44.5457 47.1562 41.7843 47.1562H29.6523C26.8909 47.1562 24.6523 44.9176 24.6523 42.1562V29.8447C24.6523 27.0833 26.8909 24.8447 29.6523 24.8447H41.7843C44.5457 24.8447 46.7843 27.0833 46.7843 29.8447V42.1562ZM26.905 39.8853C26.905 42.6467 29.1435 44.8853 31.905 44.8853H39.5317C42.2931 44.8853 44.5317 42.6467 44.5317 39.8853V32.1156C44.5317 29.3542 42.2931 27.1156 39.5317 27.1156H31.905C29.1435 27.1156 26.905 29.3542 26.905 32.1156V39.8853Z" fill="#3EBBC4" stroke="#3EBBC4" stroke-width="2" stroke-linejoin="round"/>
<path d="M46.7843 65.9999C46.7843 68.7613 44.5457 70.9999 41.7843 70.9999H29.6523C26.8909 70.9999 24.6523 68.7613 24.6523 65.9999V53.6885C24.6523 50.927 26.8909 48.6885 29.6523 48.6885H41.7843C44.5457 48.6885 46.7843 50.9271 46.7843 53.6885V65.9999ZM26.905 63.729C26.905 66.4904 29.1435 68.729 31.905 68.729H39.5317C42.2931 68.729 44.5317 66.4905 44.5317 63.729V55.9594C44.5317 53.1979 42.2931 50.9594 39.5317 50.9594H31.905C29.1435 50.9594 26.905 53.1979 26.905 55.9594V63.729Z" fill="#3EBBC4" stroke="#3EBBC4" stroke-width="2" stroke-linejoin="round"/>
<path d="M71.0001 18.3114C71.0001 21.0729 68.7615 23.3114 66.0001 23.3114H53.8682C51.1067 23.3114 48.8682 21.0729 48.8682 18.3114V5.99999C48.8682 3.23857 51.1067 1 53.8682 1H66.0001C68.7615 1 71.0001 3.23858 71.0001 6V18.3114ZM51.1208 16.0405C51.1208 18.802 53.3594 21.0406 56.1208 21.0406H63.7475C66.5089 21.0406 68.7475 18.802 68.7475 16.0406V8.27089C68.7475 5.50946 66.5089 3.27088 63.7475 3.27088H56.1208C53.3594 3.27088 51.1208 5.50946 51.1208 8.27088V16.0405Z" fill="#3EBBC4" stroke="#3EBBC4" stroke-width="2" stroke-linejoin="round"/>
<path d="M71.0001 42.1562C71.0001 44.9176 68.7615 47.1562 66.0001 47.1562H53.8682C51.1067 47.1562 48.8682 44.9176 48.8682 42.1562V29.8447C48.8682 27.0833 51.1067 24.8447 53.8682 24.8447H66.0001C68.7615 24.8447 71.0001 27.0833 71.0001 29.8447V42.1562ZM51.1208 39.8853C51.1208 42.6467 53.3594 44.8853 56.1208 44.8853H63.7475C66.5089 44.8853 68.7475 42.6467 68.7475 39.8853V32.1156C68.7475 29.3542 66.5089 27.1156 63.7475 27.1156H56.1208C53.3594 27.1156 51.1208 29.3542 51.1208 32.1156V39.8853Z" fill="#3EBBC4" stroke="#3EBBC4" stroke-width="2" stroke-linejoin="round"/>
<path d="M71.0001 65.9999C71.0001 68.7613 68.7615 70.9999 66.0001 70.9999H53.8682C51.1067 70.9999 48.8682 68.7613 48.8682 65.9999V53.6885C48.8682 50.927 51.1067 48.6885 53.8682 48.6885H66.0001C68.7615 48.6885 71.0001 50.9271 71.0001 53.6885V65.9999ZM51.1208 63.729C51.1208 66.4904 53.3594 68.729 56.1208 68.729H63.7475C66.5089 68.729 68.7475 66.4905 68.7475 63.729V55.9594C68.7475 53.1979 66.5089 50.9594 63.7475 50.9594H56.1208C53.3594 50.9594 51.1208 53.1979 51.1208 55.9594V63.729Z" fill="#3EBBC4" stroke="#3EBBC4" stroke-width="2" stroke-linejoin="round"/>
</svg>
