<svg width="40" height="40" viewBox="0 0 40 40" fill="none" xmlns="http://www.w3.org/2000/svg">
<path d="M20 10.16C23.2 10.16 23.58 10.16 24.85 10.23C25.6119 10.2416 26.3661 10.3837 27.08 10.65C27.5981 10.8451 28.0686 11.1485 28.4601 11.5399C28.8515 11.9314 29.1549 12.4019 29.35 12.92C29.6163 13.6339 29.7584 14.3881 29.77 15.15C29.83 16.42 29.84 16.8 29.84 20C29.84 23.2 29.84 23.58 29.77 24.85C29.7584 25.6119 29.6163 26.3661 29.35 27.08C29.1549 27.5981 28.8515 28.0686 28.4601 28.4601C28.0686 28.8515 27.5981 29.1549 27.08 29.35C26.3661 29.6163 25.6119 29.7584 24.85 29.77C23.58 29.83 23.2 29.84 20 29.84C16.8 29.84 16.42 29.84 15.15 29.77C14.3881 29.7584 13.6339 29.6163 12.92 29.35C12.4019 29.1549 11.9314 28.8515 11.5399 28.4601C11.1485 28.0686 10.8451 27.5981 10.65 27.08C10.3837 26.3661 10.2416 25.6119 10.23 24.85C10.17 23.58 10.16 23.2 10.16 20C10.16 16.8 10.16 16.42 10.23 15.15C10.2416 14.3881 10.3837 13.6339 10.65 12.92C10.8451 12.4019 11.1485 11.9314 11.5399 11.5399C11.9314 11.1485 12.4019 10.8451 12.92 10.65C13.6339 10.3837 14.3881 10.2416 15.15 10.23C16.42 10.17 16.8 10.16 20 10.16ZM20 8C16.74 8 16.33 8 15.05 8.07C14.0552 8.09005 13.0712 8.27943 12.14 8.63C11.3406 8.93469 10.6147 9.4049 10.0098 10.0098C9.4049 10.6147 8.93469 11.3406 8.63 12.14C8.27943 13.0712 8.09005 14.0552 8.07 15.05C8 16.33 8 16.74 8 20C8 23.26 8 23.67 8.07 24.95C8.09005 25.9448 8.27943 26.9288 8.63 27.86C8.93469 28.6594 9.4049 29.3853 10.0098 29.9902C10.6147 30.5951 11.3406 31.0653 12.14 31.37C13.0712 31.7206 14.0552 31.9099 15.05 31.93C16.33 32 16.74 32 20 32C23.26 32 23.67 32 24.95 31.93C25.9448 31.9099 26.9288 31.7206 27.86 31.37C28.6594 31.0653 29.3853 30.5951 29.9902 29.9902C30.5951 29.3853 31.0653 28.6594 31.37 27.86C31.715 26.9446 31.9043 25.9779 31.93 25C32 23.67 32 23.26 32 20C32 16.74 32 16.33 31.93 15.05C31.9099 14.0552 31.7206 13.0712 31.37 12.14C31.0653 11.3406 30.5951 10.6147 29.9902 10.0098C29.3853 9.4049 28.6594 8.93469 27.86 8.63C26.9446 8.28495 25.9779 8.09567 25 8.07C23.67 8 23.26 8 20 8ZM20 13.84C18.7817 13.84 17.5907 14.2013 16.5777 14.8781C15.5647 15.555 14.7751 16.5171 14.3089 17.6427C13.8427 18.7683 13.7207 20.0068 13.9584 21.2018C14.196 22.3967 14.7827 23.4943 15.6442 24.3558C16.5057 25.2173 17.6033 25.804 18.7982 26.0416C19.9932 26.2793 21.2317 26.1573 22.3573 25.6911C23.4829 25.2249 24.445 24.4353 25.1219 23.4223C25.7987 22.4093 26.16 21.2183 26.16 20C26.16 19.1911 26.0007 18.39 25.6911 17.6427C25.3815 16.8953 24.9278 16.2162 24.3558 15.6442C23.7838 15.0722 23.1047 14.6185 22.3573 14.3089C21.61 13.9993 20.8089 13.84 20 13.84ZM20 24C19.2089 24 18.4355 23.7654 17.7777 23.3259C17.1199 22.8864 16.6072 22.2616 16.3045 21.5307C16.0017 20.7998 15.9225 19.9956 16.0769 19.2196C16.2312 18.4437 16.6122 17.731 17.1716 17.1716C17.731 16.6122 18.4437 16.2312 19.2196 16.0769C19.9956 15.9225 20.7998 16.0017 21.5307 16.3045C22.2616 16.6072 22.8864 17.1199 23.3259 17.7777C23.7654 18.4355 24 19.2089 24 20C24 21.0609 23.5786 22.0783 22.8284 22.8284C22.0783 23.5786 21.0609 24 20 24ZM26.41 12.15C26.1252 12.15 25.8468 12.2345 25.61 12.3927C25.3732 12.5509 25.1886 12.7758 25.0796 13.0389C24.9706 13.3021 24.9421 13.5916 24.9977 13.8709C25.0532 14.1503 25.1904 14.4068 25.3918 14.6082C25.5932 14.8096 25.8497 14.9468 26.1291 15.0023C26.4084 15.0579 26.6979 15.0294 26.9611 14.9204C27.2242 14.8114 27.4491 14.6268 27.6073 14.39C27.7655 14.1532 27.85 13.8748 27.85 13.59C27.85 13.2081 27.6983 12.8418 27.4282 12.5718C27.1582 12.3017 26.7919 12.15 26.41 12.15Z" fill="#EEFFC4"/>
</svg>
