<svg width="30" height="30" viewBox="0 0 30 30" fill="none" xmlns="http://www.w3.org/2000/svg">
<path d="M25.3253 9.74971C24.8279 8.87017 24.1173 8.12985 23.2589 7.59688C22.4004 7.0639 21.4217 6.75538 20.4128 6.69971C19.2239 6.75218 18.095 7.23664 17.2378 8.06221C16.5291 8.70393 15.892 9.42062 15.3378 10.1997C14.7381 9.41176 14.0549 8.69092 13.3003 8.04971C12.3024 7.18029 11.0239 6.70084 9.70034 6.69971C8.64414 6.77483 7.62435 7.11705 6.73665 7.69428C5.84895 8.2715 5.12246 9.06479 4.62534 9.99971C3.23914 12.256 2.50372 14.8516 2.50034 17.4997C2.49427 18.1895 2.56979 18.8776 2.72534 19.5497C2.85088 20.149 3.07474 20.7235 3.38784 21.2497C3.76515 21.8988 4.31596 22.4298 4.97839 22.7831C5.64082 23.1363 6.38864 23.298 7.13784 23.2497C8.70034 23.2497 9.87534 22.5497 11.2628 20.7497C12.3024 19.3259 13.2262 17.8211 14.0253 16.2497L14.8128 14.8497C14.8878 14.7372 14.9503 14.6247 15.0128 14.5122L15.2003 14.8247L17.4378 18.5747C18.154 19.8249 19.014 20.987 20.0003 22.0372C20.415 22.4565 20.9128 22.7843 21.4618 22.9996C22.0108 23.2148 22.5987 23.3128 23.1878 23.2872C23.8026 23.311 24.4137 23.1832 24.9674 22.9151C25.5211 22.647 26.0003 22.2468 26.3628 21.7497C26.4466 21.6389 26.5218 21.5219 26.5878 21.3997C26.7393 21.1488 26.8689 20.8853 26.9753 20.6122L27.1253 20.1747C27.293 19.712 27.4186 19.235 27.5003 18.7497C27.5235 18.3334 27.5235 17.9161 27.5003 17.4997C27.5533 14.7587 26.7968 12.0629 25.3253 9.74971ZM12.6753 14.1997C11.8753 15.4497 10.7128 17.3372 9.71284 18.7122C8.46284 20.4247 7.82534 20.5997 7.12534 20.5997C6.8335 20.6052 6.54564 20.5313 6.29248 20.386C6.03932 20.2407 5.83034 20.0295 5.68784 19.7747C5.3377 19.1229 5.16932 18.3889 5.20034 17.6497C5.17237 15.3979 5.76951 13.1825 6.92534 11.2497C7.19557 10.7421 7.58671 10.3089 8.06417 9.98843C8.54163 9.66794 9.09071 9.47003 9.66284 9.41221C10.2184 9.43814 10.7612 9.58731 11.2519 9.8489C11.7427 10.1105 12.1691 10.478 12.5003 10.9247C12.9486 11.4456 13.366 11.9924 13.7503 12.5622L12.6753 14.1997ZM23.2003 20.5997C22.6003 20.5997 22.1378 20.3622 21.4753 19.5622C20.3981 18.1042 19.4128 16.5804 18.5253 14.9997L17.8753 13.9247C17.4253 13.1622 16.9878 12.4747 16.6253 11.8622C16.6888 11.7452 16.7598 11.6325 16.8378 11.5247C18.0128 9.78721 19.0503 8.81221 20.3378 8.81221C20.989 8.86954 21.6152 9.0896 22.1591 9.45218C22.703 9.81476 23.147 10.3082 23.4503 10.8872C24.6248 12.9121 25.2175 15.222 25.1628 17.5622C25.1128 19.1997 24.7378 20.5997 23.2003 20.5997Z" fill="#EEFFC4"/>
</svg>
