<svg width="42" height="40" viewBox="0 0 42 40" fill="none" xmlns="http://www.w3.org/2000/svg">
<path d="M2.80123 12.8714C3.04174 12.481 3.43544 12.1806 3.91637 11.9457C4.40007 11.7094 5.00698 11.5221 5.72343 11.3752L5.72292 11.376C5.80569 11.3546 5.91268 11.3348 6.01654 11.3183C6.16547 11.2947 6.36525 11.2659 6.61381 11.2332C7.11106 11.1679 7.8158 11.0832 8.726 10.9792L10.2997 10.8005C11.8643 10.6377 13.4069 10.5225 14.9275 10.4549C16.4558 10.3743 17.9605 10.3337 19.4408 10.3324L20.9134 10.3439L21.9288 10.3696C26.9105 10.5342 30.5023 11.2322 32.61 12.5308C32.9374 12.7325 33.2226 12.997 33.3466 13.3516C33.4788 13.7302 33.3911 14.1022 33.1941 14.4219L32.9319 14.8476L31.9799 14.2611C29.2898 12.6037 24.6924 11.8602 18.0789 12.1315L18.0775 12.1319C15.6148 12.2258 13.1502 12.4389 10.6842 12.7717C8.21637 13.1047 5.74351 13.5436 3.26546 14.0876L2.96857 14.1525L2.77433 13.9204C2.62225 13.7387 2.59027 13.5218 2.61808 13.3343C2.64361 13.1624 2.7191 13.0047 2.80123 12.8714Z" fill="#85C48D" stroke="#85C48D"/>
<path d="M6.17961 29.5441C6.34904 29.118 6.68489 28.7541 7.11799 28.4396C7.55358 28.1234 8.11898 27.834 8.79926 27.5654L8.7989 27.5663C8.87673 27.531 8.97868 27.4929 9.07813 27.4587C9.22073 27.4097 9.41252 27.3468 9.6517 27.2717C10.1302 27.1214 10.8097 26.9162 11.6882 26.6564L13.2073 26.2085C14.7203 25.7777 16.2197 25.3976 17.7058 25.0683C19.1971 24.7247 20.6722 24.4247 22.13 24.1676L23.5824 23.9244L24.5869 23.7742C29.5222 23.0753 33.1805 23.1421 35.481 24.0568C35.8383 24.1989 36.1649 24.4102 36.3483 24.738C36.544 25.0881 36.5219 25.4696 36.3831 25.8186L36.1984 26.2832L35.1593 25.87C32.2234 24.7025 27.5667 24.7648 21.0995 26.175L21.0982 26.1756C18.6888 26.6937 16.2981 27.3296 13.9267 28.0836C11.5536 28.8381 9.19381 29.6978 6.84706 30.6618L6.56584 30.777L6.33442 30.582C6.15322 30.4293 6.08424 30.2212 6.07923 30.0318C6.07468 29.8581 6.12176 29.6896 6.17961 29.5441Z" fill="#85C48D" stroke="#85C48D"/>
<path d="M0.833977 20.9411C1.13052 20.4598 1.62199 20.0801 2.24302 19.7767C2.86701 19.4719 3.65664 19.2272 4.59762 19.0342L4.59743 19.0364C4.69634 19.0102 4.83317 18.9824 4.97871 18.9593C5.17389 18.9283 5.43766 18.8913 5.76638 18.8481C6.42445 18.7617 7.35782 18.6492 8.56509 18.5112L8.56458 18.512C11.349 18.1691 14.0813 17.938 16.7615 17.819C19.4562 17.6767 22.0946 17.6277 24.6758 17.6721L24.6763 17.6713C31.9724 17.8039 37.1463 18.7334 40.0829 20.5426C40.5012 20.8003 40.8429 21.1256 40.9896 21.5451C41.1447 21.9888 41.0454 22.43 40.8029 22.8237L40.5407 23.2494L39.4182 22.5579C35.8125 20.3364 29.6826 19.3561 20.9198 19.7156L20.9176 19.7154C17.6514 19.84 14.383 20.1234 11.1126 20.5648C7.8402 21.0064 4.56092 21.587 1.27516 22.3083L0.979105 22.3737L0.784864 22.1416C0.61922 21.9437 0.581556 21.7059 0.6131 21.4932C0.642376 21.2961 0.730785 21.1086 0.833977 20.9411Z" fill="#85C48D" stroke="#85C48D"/>
</svg>
