<svg width="70" height="70" viewBox="0 0 70 70" fill="none" xmlns="http://www.w3.org/2000/svg">
<g clip-path="url(#clip0_342_203)">
<rect width="70" height="70" fill="white"/>
<path d="M1.09375 47.9688C1.09375 53.4916 5.5709 57.9688 11.0938 57.9688H22.6953C25.1116 57.9688 27.0703 59.9275 27.0703 62.3438V62.3438C27.0703 64.76 25.1116 66.7188 22.6953 66.7188H14.2187C13.6147 66.7188 13.125 67.2084 13.125 67.8125V67.8125C13.125 68.4166 13.6147 68.9062 14.2188 68.9062H55.7813C56.3853 68.9062 56.875 68.4166 56.875 67.8125V67.8125C56.875 67.2084 56.3853 66.7188 55.7812 66.7188H47.3047C44.8884 66.7188 42.9297 64.76 42.9297 62.3438V62.3438C42.9297 59.9275 44.8884 57.9688 47.3047 57.9688H58.9063C64.4291 57.9688 68.9062 53.4916 68.9062 47.9687V11.0937C68.9062 5.5709 64.4291 1.09375 58.9063 1.09375H11.0938C5.5709 1.09375 1.09375 5.5709 1.09375 11.0938V47.9688ZM40.7422 62.3438C40.7422 64.76 38.7834 66.7188 36.3672 66.7188H33.6328C31.2166 66.7188 29.2578 64.76 29.2578 62.3438V62.3438C29.2578 59.9275 31.2166 57.9688 33.6328 57.9688H36.3672C38.7834 57.9688 40.7422 59.9275 40.7422 62.3438V62.3438ZM6.28906 55.7812C4.62789 55.7812 3.28125 54.4346 3.28125 52.7734V52.7734C3.28125 51.1123 4.62789 49.7656 6.28906 49.7656H63.7109C65.3721 49.7656 66.7188 51.1123 66.7188 52.7734V52.7734C66.7188 54.4346 65.3721 55.7812 63.7109 55.7812H6.28906ZM56.7188 3.28125C62.2416 3.28125 66.7188 7.7584 66.7188 13.2812V37.5781C66.7188 43.101 62.2416 47.5781 56.7188 47.5781H13.2812C7.7584 47.5781 3.28125 43.101 3.28125 37.5781V13.2812C3.28125 7.7584 7.7584 3.28125 13.2812 3.28125H56.7188Z" stroke="#3EBBC4" stroke-width="4" stroke-linejoin="round"/>
<path d="M52.5 25.0195C52.5 21.1686 49.3782 18.0469 45.5273 18.0469H38.8281C38.6771 18.0469 38.5547 17.9245 38.5547 17.7734V17.7734C38.5547 17.6224 38.4323 17.5 38.2812 17.5H37.4609C36.8569 17.5 36.3672 17.9897 36.3672 18.5938V18.8672C36.3672 19.6223 36.9793 20.2344 37.7344 20.2344H43.3398C47.1907 20.2344 50.3125 23.3561 50.3125 27.207V33.4961C50.3125 36.7429 47.6804 39.375 44.4336 39.375V39.375C41.1868 39.375 38.5547 36.7429 38.5547 33.4961V25.9766C38.5547 25.3725 38.065 24.8828 37.4609 24.8828V24.8828C36.8569 24.8828 36.3672 25.3725 36.3672 25.9766V32.1289C36.3672 36.1308 33.123 39.375 29.1211 39.375H28.6289C24.3552 39.375 20.8906 35.9105 20.8906 31.6367V24.9648C20.8906 22.3523 23.0085 20.2344 25.6211 20.2344H28.7656C29.6415 20.2344 30.3516 19.5243 30.3516 18.6484V18.1563C30.3516 17.5522 29.8619 17.0625 29.2578 17.0625H28.6562C28.3844 17.0625 28.1641 17.2829 28.1641 17.5547V17.5547C28.1641 17.8265 27.9437 18.0469 27.6719 18.0469H23.8984C22.2373 18.0469 20.8906 16.7002 20.8906 15.0391V15.0391C20.8906 13.3779 22.2373 12.0312 23.8984 12.0312H36.0937C36.2448 12.0312 36.3672 12.1537 36.3672 12.3047V12.3047C36.3672 12.4557 36.4896 12.5781 36.6406 12.5781H37.4609C38.065 12.5781 38.5547 12.0884 38.5547 11.4844V11.2109C38.5547 10.4559 37.9426 9.84375 37.1875 9.84375H28.6289C23.147 9.84375 18.7031 14.2877 18.7031 19.7695V31.5625C18.7031 37.0853 23.1803 41.5625 28.7031 41.5625H42.5C48.0228 41.5625 52.5 37.0853 52.5 31.5625V25.0195Z" stroke="#3EBBC4" stroke-width="4" stroke-linejoin="round"/>
</g>
<defs>
<clipPath id="clip0_342_203">
<rect width="70" height="70" fill="white"/>
</clipPath>
</defs>
</svg>
