<svg width="77" height="76" viewBox="0 0 77 76" fill="none" xmlns="http://www.w3.org/2000/svg">
<path d="M37.998 2.5C57.8041 2.5 73.8779 18.3933 73.8779 38C73.8779 57.6069 57.8041 73.5 37.998 73.5C18.1921 73.4998 2.11914 57.6068 2.11914 38C2.11914 18.3934 18.1921 2.50018 37.998 2.5ZM37.998 5.6875C19.9552 5.68768 5.33008 20.1638 5.33008 38C5.33008 55.8364 19.9552 70.3123 37.998 70.3125C56.0411 70.3125 70.666 55.8365 70.666 38C70.666 20.1637 56.041 5.6875 37.998 5.6875Z" fill="#3EBBC4" stroke="#3EBBC4"/>
<path d="M37.9989 9.19775C21.9232 9.19775 8.88477 22.0967 8.88477 37.9998C8.88477 53.9032 21.9232 66.802 37.9989 66.802C54.0747 66.802 67.1131 53.9032 67.1131 37.9998C67.1131 22.0967 54.0747 9.19775 37.9989 9.19775Z" fill="#3EBBC4"/>
<path d="M37.9989 9.19775C21.9232 9.19775 8.88477 22.0967 8.88477 37.9998C8.88477 45.9593 12.1537 53.163 17.4319 58.3769L58.5967 17.6533C53.3264 12.4317 46.0446 9.19775 37.9989 9.19775Z" fill="#3EBBC4"/>
<path d="M29.89 16.125C29.4829 16.125 29.1529 16.4515 29.1529 16.8542V17.5833H22.5193C22.1122 17.5834 21.7823 17.9098 21.7822 18.3125V53.3125C21.7829 53.628 21.9885 53.9073 22.2918 54.0046C22.3155 54.0125 22.3395 54.0191 22.3638 54.0246C22.4121 54.0351 22.4613 54.0409 22.5107 54.0417H22.5194H39.9873C41.206 57.4336 44.4758 59.875 48.3167 59.875C53.1929 59.875 57.1615 55.9489 57.1615 51.125C57.1615 47.3253 54.6935 44.0906 51.265 42.8848L51.2649 18.3125C51.2649 17.9098 50.9349 17.5834 50.5279 17.5833H43.8943V16.8542C43.8942 16.4515 43.5642 16.125 43.1572 16.125H29.89ZM30.627 17.5833H42.4201V21.9583H30.627V17.5833ZM23.2564 19.0417H29.1529V20.5H25.4676C25.0605 20.5 24.7305 20.8265 24.7305 21.2292V50.3958C24.7312 50.7113 24.9368 50.9906 25.2401 51.088C25.2637 51.0958 25.2878 51.1024 25.3121 51.1079C25.3603 51.1184 25.4095 51.1242 25.4589 51.125H25.4676H39.4719C39.4719 51.6233 39.5259 52.1076 39.6072 52.5833H23.2564V19.0417ZM43.8943 19.0417H49.7908V42.506C49.3102 42.4258 48.82 42.375 48.3167 42.375V21.2292C48.3166 20.8265 47.9867 20.5 47.5796 20.5H43.8943V19.0417ZM26.2046 21.9583H29.1529V22.6875C29.1536 23.003 29.3592 23.2823 29.6625 23.3796C29.6861 23.3875 29.7102 23.3941 29.7345 23.3996C29.7827 23.4101 29.8319 23.4158 29.8813 23.4167L29.89 23.4167H43.1054H43.1572C43.1821 23.4179 43.2071 23.4179 43.232 23.4167C43.2563 23.4132 43.2803 23.4084 43.304 23.4024C43.6476 23.3333 43.8944 23.0343 43.8943 22.6875V21.9583H46.8425V42.506C43.1469 43.1238 40.2308 46.0105 39.6072 49.6667H26.2046V21.9583ZM27.6788 26.3333V29.2528H30.627V26.3333H27.6788ZM32.1012 27.0653V28.5237H45.3684V27.0653H32.1012ZM27.6788 30.7112V33.6307H30.627V30.7112H27.6788ZM32.1012 31.4432V32.9015H45.3684V31.4432H32.1012ZM27.6788 35.0833V38.0028H30.627V35.0833H27.6788ZM32.1012 35.8153V37.2737H45.3684V35.8153H32.1012ZM27.6788 39.4583V42.3778H30.627V39.4583H27.6788ZM32.1012 40.1903V41.6487H45.3684V40.1903H32.1012ZM48.3167 43.8333C52.3961 43.8333 55.6873 47.0894 55.6873 51.125C55.6873 55.1608 52.3961 58.4167 48.3167 58.4167C44.2372 58.4167 40.946 55.1608 40.946 51.125C40.946 47.0894 44.2372 43.8333 48.3167 43.8333ZM50.5912 46.186L48.4059 49.6724C48.3762 49.6715 48.3464 49.6715 48.3167 49.6724C47.7914 49.6738 47.3067 49.9516 47.0441 50.4015H43.8943V51.8599H47.0412C47.3043 52.3107 47.7904 52.5886 48.3167 52.589C48.4968 52.5889 48.6754 52.556 48.8435 52.4922L52.408 55.0841L53.2803 53.9106L49.7706 51.3529C49.7834 51.2775 49.7901 51.2014 49.7908 51.125C49.79 50.9005 49.7368 50.6792 49.6353 50.4784L51.8436 46.9551L50.5912 46.186Z" fill="white" stroke="white"/>
</svg>
