<svg width="33" height="32" viewBox="0 0 33 32" fill="none" xmlns="http://www.w3.org/2000/svg">
<path d="M20.7158 4.96631C21.6955 4.49131 22.4576 5.86611 21.6523 6.65576L16.2959 11.9077C15.7745 11.6016 15.1152 11.5771 14.4746 12.0444L9.66113 15.5571C8.592 16.3374 8.5742 17.8784 9.29199 18.7407C9.06802 18.8805 8.80435 18.9208 8.56055 18.8403L1.14551 16.3911C0.330394 16.1214 0.308416 14.86 1.1123 14.4702L20.7158 4.96631Z" fill="white"/>
<path d="M23.6687 5.79714C23.7035 4.81026 22.5248 4.28666 21.9687 5.04195L11.2025 19.6632C10.8935 20.0829 10.9704 20.7111 11.3754 21.0765L21.3098 30.039C21.9173 30.587 22.808 30.2032 22.837 29.3809L23.6687 5.79714Z" fill="white"/>
</svg>
