<svg width="21" height="21" viewBox="0 0 21 21" fill="none" xmlns="http://www.w3.org/2000/svg">
<path d="M19.6567 8.63275C17.7851 8.63275 16.05 8.03425 14.6342 7.0175V14.3544C14.6342 18.0189 11.6531 20.9991 7.98948 20.9991C6.57373 20.9991 5.26035 20.5529 4.18148 19.7951C2.46823 18.592 1.34473 16.6022 1.34473 14.3544C1.34473 10.6899 4.32585 7.70875 7.99035 7.70875C8.29485 7.70875 8.59235 7.73412 8.88548 7.7735V8.62837V11.459C8.60198 11.3706 8.30273 11.319 7.99035 11.319C6.31735 11.319 4.95585 12.6805 4.95585 14.3544C4.95585 15.5199 5.61735 16.5322 6.58335 17.0406C7.00423 17.262 7.48285 17.3889 7.99123 17.3889C9.62573 17.3889 10.9592 16.0886 11.0205 14.4681L11.0231 0H14.6334C14.6334 0.31325 14.664 0.618625 14.7182 0.916125C14.9728 2.29163 15.7892 3.472 16.9206 4.20962C17.7081 4.72325 18.6479 5.02338 19.6558 5.02338L19.6567 8.63275Z" fill="#EEFFC4"/>
</svg>
