<svg width="71" height="70" viewBox="0 0 71 70" fill="none" xmlns="http://www.w3.org/2000/svg">
<g clip-path="url(#clip0_342_266)">
<path d="M30.0459 6.5625C17.4016 6.5625 7.15527 16.8438 7.15527 29.5312C7.15527 42.2188 17.4016 52.5 30.0459 52.5C42.6902 52.5 52.9365 42.2188 52.9365 29.5312C52.9365 16.8438 42.6902 6.5625 30.0459 6.5625ZM30.0459 50.3125C18.6006 50.3125 9.33533 41.0156 9.33533 29.5312C9.33533 18.0469 18.6006 8.75 30.0459 8.75C41.4912 8.75 50.7565 18.0469 50.7565 29.5312C50.7565 41.0156 41.4912 50.3125 30.0459 50.3125Z" fill="#3EBBC4" stroke="#3EBBC4" stroke-width="2"/>
<path d="M52.664 51.6953L50.8109 49.8359C55.498 44.75 58.3866 37.9688 58.3866 30.5312C58.3866 14.8359 45.6878 2.09375 30.0459 2.09375C14.4039 2.09375 1.70508 14.8359 1.70508 30.5312C1.70508 46.2266 14.4039 58.9688 30.0459 58.9688C37.4581 58.9688 44.2162 56.0703 49.2849 51.3672L51.1379 53.2266L48.2493 56.125L62.4742 70.3984L69.7774 63.0703L55.5525 48.7969L52.664 51.6953ZM30.0459 56.7812C15.603 56.7812 3.88514 45.0234 3.88514 30.5312C3.88514 16.0391 15.603 4.28125 30.0459 4.28125C44.4887 4.28125 56.2066 16.0391 56.2066 30.5312C56.2066 45.0234 44.4887 56.7812 30.0459 56.7812ZM62.4742 67.3359L51.3014 56.125L55.5525 51.8594L66.7253 63.0703L62.4742 67.3359Z" fill="#3EBBC4" stroke="#3EBBC4" stroke-width="2"/>
<path d="M38.7665 18.7578H33.8613V20.8359L30.0462 16.4609L17.8379 28.2187L19.3639 29.75L20.236 28.875V41.0156H38.7665V28.875L39.6385 29.75L41.1645 28.2187L38.7665 25.8125V18.7578ZM36.5864 38.8281H22.416V26.6875L29.5012 19.5781L36.0414 26.1406V20.9453H36.5864V26.4688V26.6875V38.8281Z" fill="#3EBBC4" stroke="#3EBBC4" stroke-width="2"/>
</g>
<defs>
<clipPath id="clip0_342_266">
<rect x="0.615234" width="69.7619" height="70" rx="15" fill="white"/>
</clipPath>
</defs>
</svg>
