<svg width="80" height="80" viewBox="0 0 80 80" fill="none" xmlns="http://www.w3.org/2000/svg">
<path d="M22.375 40.4688C22.375 44.1794 25.3831 47.1875 29.0938 47.1875H53.8196C54.4025 47.1875 54.875 47.66 54.875 48.2429C54.875 48.7807 54.4706 49.2324 53.9362 49.2918L41.6087 50.6615C39.5542 50.8898 38 52.6263 38 54.6934V57.6562C38 58.2603 37.5103 58.75 36.9062 58.75C36.3022 58.75 35.8125 59.2397 35.8125 59.8438V70.3125C35.8125 72.211 37.3515 73.75 39.25 73.75C41.1485 73.75 42.6875 72.211 42.6875 70.3125V59.8438C42.6875 59.2397 42.1978 58.75 41.5938 58.75C40.9897 58.75 40.5 58.2603 40.5 57.6562V55.8807C40.5 54.4186 41.5993 53.1904 43.0525 53.0289L53.151 51.9068C55.5557 51.6396 57.375 49.607 57.375 47.1875V45.9375V43.75C57.375 38.2272 52.8979 33.75 47.375 33.75H29.0937C25.3831 33.75 22.375 36.7581 22.375 40.4688ZM40.1875 70.3125C40.1875 70.8303 39.7678 71.25 39.25 71.25C38.7322 71.25 38.3125 70.8303 38.3125 70.3125V62.1875C38.3125 61.6697 38.7322 61.25 39.25 61.25C39.7678 61.25 40.1875 61.6697 40.1875 62.1875V70.3125ZM24.875 40.4688C24.875 38.1388 26.7638 36.25 29.0938 36.25H50.6563C52.9862 36.25 54.875 38.1388 54.875 40.4688C54.875 42.7987 52.9862 44.6875 50.6563 44.6875H29.0938C26.7638 44.6875 24.875 42.7987 24.875 40.4688Z" fill="#3EBBC4" stroke="#3EBBC4" stroke-width="2"/>
<path d="M7.08947 43.4105C8.39417 42.1058 10.625 43.0299 10.625 44.875V68.75C10.625 74.2729 15.1022 78.75 20.625 78.75H59.375C64.8979 78.75 69.375 74.2729 69.375 68.75V44.875C69.375 43.0299 71.6058 42.1058 72.9105 43.4105C73.7193 44.2193 75.0307 44.2193 75.8395 43.4105L76.8125 42.4375C78.1587 41.0913 78.1587 38.9087 76.8125 37.5625L72.2673 33.0173C70.4154 31.1654 69.375 28.6537 69.375 26.0346V13.4375C69.375 10.1583 66.7167 7.5 63.4375 7.5H60.6486C58.9097 7.5 57.5 8.90968 57.5 10.6486C57.5 13.4537 54.1085 14.8585 52.125 12.875L45.1256 5.87564C42.2948 3.04483 37.7052 3.04482 34.8744 5.87563L3.1875 37.5625C1.8413 38.9087 1.8413 41.0913 3.1875 42.4375L4.16053 43.4105C4.96934 44.2193 6.28066 44.2193 7.08947 43.4105ZM66.9116 37.5C66.8914 37.5 66.875 37.5164 66.875 37.5366V66.25C66.875 71.7729 62.3979 76.25 56.875 76.25H23.125C17.6022 76.25 13.125 71.7729 13.125 66.25V37.5366C13.125 37.5164 13.1086 37.5 13.0884 37.5C13.0558 37.5 13.0394 37.4606 13.0625 37.4375L32.9289 17.5711C36.8342 13.6658 43.1658 13.6658 47.0711 17.5711L66.9375 37.4375C66.9606 37.4606 66.9442 37.5 66.9116 37.5ZM34.1421 10.1079C37.3773 6.87266 42.6227 6.87266 45.8579 10.1079L52.875 17.125C55.5043 19.7543 60 17.8921 60 14.1737V13.4375C60 11.539 61.539 10 63.4375 10C65.336 10 66.875 11.539 66.875 13.4375V27.4489C66.875 29.8027 67.8101 32.06 69.4744 33.7244L75.0625 39.3125C75.4422 39.6922 75.4422 40.3078 75.0625 40.6875C74.6828 41.0672 74.0672 41.0672 73.6875 40.6875L47.0711 14.0711C43.1658 10.1658 36.8342 10.1658 32.9289 14.0711L6.3125 40.6875C5.9328 41.0672 5.3172 41.0672 4.9375 40.6875C4.5578 40.3078 4.55781 39.6922 4.9375 39.3125L34.1421 10.1079Z" fill="#3EBBC4" stroke="#3EBBC4" stroke-width="2"/>
</svg>
