<svg width="71" height="70" viewBox="0 0 71 70" fill="none" xmlns="http://www.w3.org/2000/svg">
<g clip-path="url(#clip0_342_243)">
<path d="M35.4958 62.0703C50.3747 62.0703 62.474 49.9297 62.474 35C62.474 20.0703 50.3747 7.92969 35.4958 7.92969C20.6169 7.92969 8.51758 20.0703 8.51758 35C8.51758 49.9297 20.6169 62.0703 35.4958 62.0703ZM35.4958 10.1172C49.1757 10.1172 60.294 21.2734 60.294 35C60.294 48.7266 49.1757 59.8828 35.4958 59.8828C21.8159 59.8828 10.6976 48.7266 10.6976 35C10.6976 21.2734 21.8159 10.1172 35.4958 10.1172Z" fill="#3EBBC4" stroke="#3EBBC4" stroke-width="2"/>
<path d="M35.496 68.9062C54.1355 68.9062 69.2869 53.7031 69.2869 35C69.2869 16.2969 54.1355 1.09375 35.496 1.09375C16.8565 1.09375 1.70508 16.2969 1.70508 35C1.70508 53.7031 16.8565 68.9062 35.496 68.9062ZM35.496 3.28125C52.9365 3.28125 67.1069 17.5 67.1069 35C67.1069 52.5 52.9365 66.7188 35.496 66.7188C18.0555 66.7188 3.88514 52.5 3.88514 35C3.88514 17.5 18.0555 3.28125 35.496 3.28125Z" fill="#3EBBC4" stroke="#3EBBC4" stroke-width="2"/>
<path d="M35.7113 13.3438H35.2813C34.798 13.3438 34.4062 13.7355 34.4062 14.2188C34.4062 14.702 34.798 15.0938 35.2812 15.0938H35.7113C36.1946 15.0938 36.5863 14.702 36.5863 14.2188C36.5863 13.7355 36.1946 13.3438 35.7113 13.3438Z" fill="#3EBBC4" stroke="#3EBBC4" stroke-width="2"/>
<path d="M57.079 35.2217V34.7783C57.079 34.2967 56.6886 33.9062 56.207 33.9062C55.7254 33.9062 55.335 34.2967 55.335 34.7783V35.2217C55.335 35.7033 55.7254 36.0938 56.207 36.0938C56.6886 36.0938 57.079 35.7033 57.079 35.2217Z" fill="#3EBBC4" stroke="#3EBBC4" stroke-width="2"/>
<path d="M35.7113 54.9062H35.2812C34.798 54.9062 34.4062 55.298 34.4062 55.7812C34.4062 56.2645 34.798 56.6562 35.2812 56.6562H35.7113C36.1946 56.6562 36.5863 56.2645 36.5863 55.7812C36.5863 55.298 36.1946 54.9062 35.7113 54.9062Z" fill="#3EBBC4" stroke="#3EBBC4" stroke-width="2"/>
<path d="M15.6571 35.2217V34.7783C15.6571 34.2967 15.2667 33.9062 14.7851 33.9062C14.3035 33.9062 13.9131 34.2967 13.9131 34.7783V35.2217C13.9131 35.7033 14.3035 36.0938 14.7851 36.0938C15.2667 36.0938 15.6571 35.7033 15.6571 35.2217Z" fill="#3EBBC4" stroke="#3EBBC4" stroke-width="2"/>
<path d="M34.406 38.2303C34.406 38.8323 34.894 39.3203 35.496 39.3203C36.0981 39.3203 36.5861 38.8323 36.5861 38.2303V37.707C36.5861 36.816 37.3084 36.0938 38.1994 36.0938H45.6296C46.2337 36.0938 46.7234 35.6041 46.7234 35C46.7234 34.3959 46.2337 33.9062 45.6296 33.9062H41.6547C38.8554 33.9062 36.5861 31.6369 36.5861 28.8376V19.3557C36.5861 18.7536 36.0981 18.2656 35.496 18.2656C34.894 18.2656 34.406 18.7536 34.406 19.3557V32.2985C34.406 33.1864 33.6862 33.9062 32.7982 33.9062H32.2842C31.6801 33.9062 31.1904 34.3959 31.1904 35C31.1904 35.6041 31.6801 36.0938 32.2842 36.0938H32.7982C33.6862 36.0938 34.406 36.8136 34.406 37.7015V38.2303Z" fill="#3EBBC4" stroke="#3EBBC4" stroke-width="2"/>
</g>
<defs>
<clipPath id="clip0_342_243">
<rect x="0.615234" width="69.7619" height="70" rx="15" fill="white"/>
</clipPath>
</defs>
</svg>
